<svg width="15" height="16" viewBox="0 0 15 16" fill="none" xmlns="http://www.w3.org/2000/svg">
<path d="M14.6306 7.11237C14.5144 6.99521 14.3763 6.90222 14.2241 6.83876C14.0719 6.7753 13.9087 6.74263 13.7438 6.74263C13.5789 6.74263 13.4157 6.7753 13.2635 6.83876C13.1113 6.90222 12.9731 6.99521 12.857 7.11237L8.7479 11.2373V1.74998C8.7479 1.41846 8.61632 1.10053 8.38209 0.86611C8.14786 0.631694 7.83018 0.5 7.49893 0.5C7.16769 0.5 6.85001 0.631694 6.61578 0.86611C6.38155 1.10053 6.24996 1.41846 6.24996 1.74998V11.2373L2.14085 7.11237C1.90566 6.877 1.58668 6.74477 1.25408 6.74477C0.921478 6.74477 0.602498 6.877 0.367312 7.11237C0.132126 7.34775 0 7.66698 0 7.99986C0 8.33273 0.132126 8.65196 0.367312 8.88734L6.61216 15.1372C6.73095 15.251 6.87101 15.3402 7.02433 15.3997C7.17383 15.4658 7.33548 15.5 7.49893 15.5C7.66239 15.5 7.82404 15.4658 7.97354 15.3997C8.12686 15.3402 8.26692 15.251 8.3857 15.1372L14.6306 8.88734C14.7476 8.77114 14.8405 8.63289 14.9039 8.48057C14.9674 8.32825 15 8.16487 15 7.99986C15 7.83484 14.9674 7.67146 14.9039 7.51914C14.8405 7.36682 14.7476 7.22857 14.6306 7.11237Z" fill="white"/>
</svg>
