<svg width="16" height="16" viewBox="0 0 16 16" fill="none" xmlns="http://www.w3.org/2000/svg">
<path d="M7.0532 0.394197C6.92823 0.518045 6.82904 0.66539 6.76135 0.827735C6.69366 0.99008 6.65881 1.16421 6.65881 1.34008C6.65881 1.51595 6.69366 1.69008 6.76135 1.85243C6.82904 2.01477 6.92823 2.16212 7.0532 2.28597L11.4531 6.66902L1.33331 6.66902C0.979692 6.66902 0.640561 6.80938 0.390517 7.05923C0.140473 7.30907 0 7.64793 0 8.00126C0 8.35459 0.140473 8.69345 0.390517 8.94329C0.640561 9.19313 0.979692 9.33349 1.33331 9.33349H11.4531L7.0532 13.7165C6.80213 13.9674 6.66108 14.3077 6.66108 14.6624C6.66108 15.0172 6.80213 15.3575 7.0532 15.6083C7.30426 15.8592 7.64478 16.0001 7.99984 16.0001C8.35491 16.0001 8.69543 15.8592 8.94649 15.6083L15.613 8.94715C15.7344 8.82045 15.8296 8.67104 15.893 8.50751C15.9636 8.34804 16 8.17561 16 8.00126C16 7.82691 15.9636 7.65448 15.893 7.49501C15.8296 7.33147 15.7344 7.18207 15.613 7.05537L8.94649 0.394197C8.82254 0.269328 8.67508 0.170216 8.5126 0.102579C8.35013 0.0349436 8.17586 0.00012207 7.99984 0.00012207C7.82383 0.00012207 7.64956 0.0349436 7.48709 0.102579C7.32461 0.170216 7.17714 0.269328 7.0532 0.394197Z" fill="#0069FF"/>
</svg>
