<svg width="80" height="80" viewBox="0 0 80 80" fill="none" xmlns="http://www.w3.org/2000/svg">
<circle cx="40" cy="40" r="40" fill="#F3F7FF"/>
<path d="M27.1174 55C26.463 55 25.9464 54.7679 25.5676 54.3037C25.2184 53.8747 25.0304 53.3121 25.0036 52.6158L25 52.439V27.5616C25 26.7735 25.1892 26.1497 25.5676 25.6904C25.9168 25.2659 26.3838 25.0373 26.9686 25.0046L27.118 25H43.2018C43.8478 25 44.3602 25.2299 44.739 25.6897C45.0882 26.1133 45.2762 26.6775 45.303 27.3822L45.306 27.561V31.923H52.8958C53.4918 31.923 53.974 32.1209 54.3424 32.5167L54.4324 32.62C54.782 33.048 54.97 33.6104 54.9964 34.3072L55 34.4839V52.439C55 53.2175 54.8108 53.839 54.4324 54.3037C54.0832 54.7317 53.6198 54.9625 53.0422 54.996L52.8952 55H27.1174ZM45.3054 52.439C45.3054 52.5405 45.3022 52.6392 45.2958 52.7349H52.2185C52.4653 52.7349 52.6482 52.6692 52.7674 52.5377C52.8694 52.4247 52.9276 52.257 52.942 52.0346L52.9462 51.9188V35.0049C52.9462 34.7233 52.8866 34.5168 52.7674 34.3853C52.6654 34.2728 52.5164 34.2086 52.3205 34.1927L52.2185 34.1887L45.3054 34.188V52.439ZM42.5256 27.2657H27.7935C27.5383 27.2657 27.3512 27.3313 27.232 27.4623C27.13 27.5753 27.0718 27.743 27.0574 27.9654L27.0538 28.0819V51.9188C27.0538 52.1999 27.1132 52.4062 27.232 52.5377C27.3344 52.6502 27.4864 52.7144 27.6879 52.7303L27.7935 52.7349L30.7137 52.7343V48.5841C30.7137 48.0294 30.8177 47.6086 31.0257 47.3218L31.0905 47.2397C31.3185 46.9793 31.6573 46.8375 32.1069 46.8141L32.2449 46.8108H38.0611C38.5879 46.8108 38.9747 46.9538 39.2215 47.2397C39.4459 47.5001 39.5683 47.8939 39.5887 48.4212L39.5917 48.5834L39.5911 52.7343H42.525C42.7718 52.7343 42.9546 52.6687 43.0734 52.5377C43.1754 52.4247 43.2338 52.257 43.2486 52.0346L43.2522 51.9188V28.0819C43.2522 27.8003 43.1926 27.5938 43.0734 27.4623C42.9546 27.3313 42.7724 27.2657 42.5256 27.2657ZM37.5127 48.6542H32.7932C32.546 48.6542 32.4111 48.7782 32.3883 49.0262L32.3853 49.1043L32.3847 52.7343H37.9201V49.1043C37.9201 48.8316 37.8079 48.6827 37.5835 48.6575L37.5127 48.6542ZM50.1527 47.2609C50.4175 47.2609 50.5609 47.3948 50.5829 47.6627L50.5859 47.7394V49.9344C50.5859 50.2269 50.4645 50.3853 50.2217 50.4096L50.1527 50.4129H48.0989C47.8421 50.4129 47.7027 50.279 47.6807 50.0111L47.6783 49.9344V47.7394C47.6783 47.4469 47.7963 47.2885 48.0323 47.2642L48.0989 47.2609H50.1527ZM50.1527 41.8861C50.4175 41.8861 50.5609 42.0201 50.5829 42.2879L50.5859 42.364V44.5589C50.5859 44.8515 50.4645 45.0099 50.2217 45.0342L50.1527 45.0375H48.0989C47.8421 45.0375 47.7027 44.9036 47.6807 44.6357L47.6783 44.5589V42.364C47.6783 42.0715 47.7963 41.913 48.0323 41.8888L48.0989 41.8855L50.1527 41.8861ZM33.4052 40.7456C33.7276 40.7456 33.901 40.9096 33.9254 41.2375L33.9284 41.3228V43.9824C33.9284 44.3372 33.7798 44.5283 33.4826 44.5556L33.4052 44.5589H30.9183C30.6123 44.5589 30.4475 44.3952 30.4239 44.0678L30.4209 43.9818V41.3228C30.4209 40.9681 30.5621 40.7768 30.8445 40.749L30.9183 40.7456H33.4052ZM39.3751 40.7456C39.6967 40.7456 39.8699 40.9096 39.8947 41.2375L39.8977 41.3228V43.9824C39.8977 44.3372 39.7491 44.5283 39.4519 44.5556L39.3745 44.5589H36.9002C36.5862 44.5589 36.4172 44.3952 36.3932 44.0678L36.3902 43.9818V41.3228C36.3902 40.9681 36.535 40.7768 36.8246 40.749L36.9002 40.7456H39.3751ZM50.1527 36.51C50.4175 36.51 50.5609 36.6442 50.5829 36.9125L50.5859 36.9886V39.1842C50.5859 39.4763 50.4645 39.6345 50.2217 39.6588L50.1527 39.6621H48.0989C47.8421 39.6621 47.7027 39.5282 47.6807 39.2603L47.6783 39.1842V36.9886C47.6783 36.6969 47.7963 36.5385 48.0323 36.5134L48.0989 36.51H50.1527ZM33.4052 35.173C33.7276 35.173 33.901 35.3371 33.9254 35.6654L33.9284 35.7502V38.4097C33.9284 38.7654 33.7798 38.9567 33.4826 38.9836L33.4052 38.9869H30.9183C30.6123 38.9869 30.4475 38.823 30.4239 38.4951L30.4209 38.4097V35.7502C30.4209 35.3954 30.5621 35.2043 30.8445 35.177L30.9183 35.1736L33.4052 35.173ZM39.3751 35.173C39.6967 35.173 39.8699 35.3371 39.8947 35.6654L39.8977 35.7502V38.4097C39.8977 38.7654 39.7491 38.9567 39.4519 38.9836L39.3745 38.9869H36.9002C36.5862 38.9869 36.4172 38.823 36.3932 38.4951L36.3902 38.4097V35.7502C36.3902 35.3954 36.535 35.2043 36.8246 35.177L36.9002 35.1736L39.3751 35.173ZM33.4052 29.6016C33.7276 29.6016 33.901 29.7654 33.9254 30.0928L33.9284 30.1788V32.8377C33.9284 33.1925 33.7798 33.3836 33.4826 33.411L33.4052 33.4149H30.9183C30.6123 33.4149 30.4475 33.251 30.4239 32.9231L30.4209 32.8377V30.1782C30.4209 29.8234 30.5621 29.6323 30.8445 29.6049L30.9183 29.6016H33.4052ZM39.3751 29.6016C39.6967 29.6016 39.8699 29.7654 39.8947 30.0928L39.8977 30.1788V32.8377C39.8977 33.1925 39.7491 33.3836 39.4519 33.411L39.3745 33.4149H36.9002C36.5862 33.4149 36.4172 33.251 36.3932 32.9231L36.3902 32.8377V30.1782C36.3902 29.8234 36.535 29.6323 36.8246 29.6049L36.9002 29.6016H39.3751Z" fill="#0069FF"/>
</svg>
