<svg width="40" height="40" viewBox="0 0 40 40" fill="none" xmlns="http://www.w3.org/2000/svg">
<path d="M2.82314 40C1.95063 40 1.26184 39.6905 0.756785 39.0716C0.291194 38.4997 0.0405326 37.7495 0.00479994 36.821L0 36.5854V3.41548C0 2.36466 0.252262 1.533 0.756785 0.920504C1.22238 0.354493 1.84503 0.0497172 2.62475 0.00617785L2.82394 0H24.2691C25.1304 0 25.8136 0.30654 26.3187 0.919621C26.7843 1.48446 27.0349 2.23669 27.0707 3.17631L27.0747 3.4146V9.23063H37.1945C37.9891 9.23063 38.632 9.49452 39.1232 10.0223L39.2432 10.16C39.7093 10.7307 39.96 11.4806 39.9952 12.4096L40 12.6452V36.5854C40 37.6233 39.7477 38.452 39.2432 39.0716C38.7776 39.6423 38.1598 39.95 37.3897 39.9947L37.1937 40H2.82314ZM27.0739 36.5854C27.0739 36.7207 27.0696 36.8522 27.0611 36.9799H36.2913C36.6203 36.9799 36.8643 36.8922 37.0233 36.7169C37.1593 36.5663 37.2369 36.3427 37.2561 36.0462L37.2617 35.8917V13.3398C37.2617 12.9644 37.1822 12.6891 37.0233 12.5137C36.8873 12.3637 36.6886 12.2781 36.4273 12.2569L36.2913 12.2516L27.0739 12.2507V36.5854ZM23.3675 3.02098H3.72473C3.38447 3.02098 3.13487 3.10836 2.97594 3.2831C2.83994 3.43372 2.76234 3.6573 2.74315 3.95384L2.73835 4.10917V35.8917C2.73835 36.2665 2.81754 36.5416 2.97594 36.7169C3.11247 36.8669 3.31513 36.9525 3.58393 36.9737L3.72473 36.9799L7.61825 36.979V31.4454C7.61825 30.7058 7.75691 30.1448 8.03424 29.7624L8.12064 29.6529C8.42463 29.3058 8.87636 29.1166 9.47581 29.0855L9.65981 29.081H17.4149C18.1172 29.081 18.633 29.2717 18.962 29.6529C19.2612 30.0001 19.4244 30.5252 19.4516 31.2283L19.4556 31.4445L19.4548 36.979H23.3667C23.6958 36.979 23.9395 36.8916 24.0979 36.7169C24.2339 36.5663 24.3118 36.3427 24.3315 36.0462L24.3363 35.8917V4.10917C24.3363 3.73379 24.2568 3.45844 24.0979 3.2831C23.9395 3.10836 23.6966 3.02098 23.3675 3.02098ZM16.6837 31.539H10.391C10.0614 31.539 9.8814 31.7043 9.851 32.0349L9.847 32.1391L9.8462 36.979H17.2269V32.1391C17.2269 31.7755 17.0773 31.5769 16.7781 31.5434L16.6837 31.539ZM33.5369 29.6812C33.89 29.6812 34.0812 29.8597 34.1105 30.2169L34.1145 30.3193V33.2458C34.1145 33.6359 33.9527 33.8471 33.6289 33.8795L33.5369 33.8839H30.7986C30.4562 33.8839 30.2703 33.7053 30.241 33.3482L30.2378 33.2458V30.3193C30.2378 29.9292 30.3951 29.718 30.7098 29.6856L30.7986 29.6812H33.5369ZM33.5369 22.5148C33.89 22.5148 34.0812 22.6934 34.1105 23.0505L34.1145 23.152V26.0786C34.1145 26.4687 33.9527 26.6799 33.6289 26.7123L33.5369 26.7167H30.7986C30.4562 26.7167 30.2703 26.5381 30.241 26.181L30.2378 26.0786V23.152C30.2378 22.762 30.3951 22.5507 30.7098 22.5184L30.7986 22.514L33.5369 22.5148ZM11.207 20.9942C11.6368 20.9942 11.868 21.2128 11.9006 21.6499L11.9046 21.7638V25.3099C11.9046 25.7829 11.7064 26.0377 11.3102 26.0742L11.207 26.0786H7.89104C7.48305 26.0786 7.26332 25.8603 7.23186 25.4237L7.22786 25.309V21.7638C7.22786 21.2907 7.41612 21.0357 7.79264 20.9986L7.89104 20.9942H11.207ZM19.1668 20.9942C19.5956 20.9942 19.8265 21.2128 19.8596 21.6499L19.8636 21.7638V25.3099C19.8636 25.7829 19.6655 26.0377 19.2692 26.0742L19.166 26.0786H15.8669C15.4482 26.0786 15.2229 25.8603 15.1909 25.4237L15.1869 25.309V21.7638C15.1869 21.2907 15.38 21.0357 15.7661 20.9986L15.8669 20.9942H19.1668ZM33.5369 15.3467C33.89 15.3467 34.0812 15.5256 34.1105 15.8833L34.1145 15.9848V18.9123C34.1145 19.3018 33.9527 19.5127 33.6289 19.545L33.5369 19.5495H30.7986C30.4562 19.5495 30.2703 19.3709 30.241 19.0137L30.2378 18.9123V15.9848C30.2378 15.5959 30.3951 15.3847 30.7098 15.3511L30.7986 15.3467H33.5369ZM11.207 13.564C11.6368 13.564 11.868 13.7828 11.9006 14.2206L11.9046 14.3336V17.8797C11.9046 18.3539 11.7064 18.6089 11.3102 18.6448L11.207 18.6493H7.89104C7.48305 18.6493 7.26332 18.4307 7.23186 17.9935L7.22786 17.8797V14.3336C7.22786 13.8605 7.41612 13.6057 7.79264 13.5693L7.89104 13.5649L11.207 13.564ZM19.1668 13.564C19.5956 13.564 19.8265 13.7828 19.8596 14.2206L19.8636 14.3336V17.8797C19.8636 18.3539 19.6655 18.6089 19.2692 18.6448L19.166 18.6493H15.8669C15.4482 18.6493 15.2229 18.4307 15.1909 17.9935L15.1869 17.8797V14.3336C15.1869 13.8605 15.38 13.6057 15.7661 13.5693L15.8669 13.5649L19.1668 13.564ZM11.207 6.13552C11.6368 6.13552 11.868 6.3538 11.9006 6.79037L11.9046 6.9051V10.4503C11.9046 10.9234 11.7064 11.1781 11.3102 11.2146L11.207 11.2199H7.89104C7.48305 11.2199 7.26332 11.0013 7.23186 10.5642L7.22786 10.4503V6.90422C7.22786 6.43117 7.41612 6.17641 7.79264 6.13993L7.89104 6.13552H11.207ZM19.1668 6.13552C19.5956 6.13552 19.8265 6.3538 19.8596 6.79037L19.8636 6.9051V10.4503C19.8636 10.9234 19.6655 11.1781 19.2692 11.2146L19.166 11.2199H15.8669C15.4482 11.2199 15.2229 11.0013 15.1909 10.5642L15.1869 10.4503V6.90422C15.1869 6.43117 15.38 6.17641 15.7661 6.13993L15.8669 6.13552H19.1668Z" fill="#0069FF"/>
</svg>
