<svg width="20" height="20" viewBox="0 0 20 20" fill="none" xmlns="http://www.w3.org/2000/svg">
<path d="M18.0404 13.6386L15.2125 13.3157C14.88 13.2766 14.5429 13.3135 14.2267 13.4234C13.9104 13.5333 13.6232 13.7134 13.3866 13.9503L11.338 15.9989C8.17765 14.3911 5.60877 11.8222 4.00102 8.66188L6.06073 6.60218C6.53947 6.12344 6.77327 5.45543 6.69534 4.77628L6.37246 1.97064C6.30958 1.42742 6.049 0.926337 5.64039 0.562906C5.23179 0.199475 4.70374 -0.000890761 4.15689 2.97705e-06H2.23079C0.972707 2.97705e-06 -0.0738448 1.04655 0.00408987 2.30464C0.594166 11.8127 8.19836 19.4057 17.6953 19.9958C18.9533 20.0737 19.9999 19.0272 19.9999 17.7691V15.843C20.011 14.7185 19.1649 13.7722 18.0404 13.6386Z" fill="url(#paint0_linear_253_14)"/>
<defs>
<linearGradient id="paint0_linear_253_14" x1="0" y1="9.99995" x2="20" y2="9.99995" gradientUnits="userSpaceOnUse">
<stop stop-color="#3286FF"/>
<stop offset="0.458984" stop-color="#0069FF"/>
<stop offset="1" stop-color="#00B2FF"/>
</linearGradient>
</defs>
</svg>
