<svg width="19" height="18" viewBox="0 0 19 18" fill="none" xmlns="http://www.w3.org/2000/svg">
<path d="M5.72 0H13.28C16.16 0 18.5 2.34 18.5 5.22V12.78C18.5 14.1644 17.95 15.4922 16.9711 16.4711C15.9922 17.45 14.6644 18 13.28 18H5.72C2.84 18 0.5 15.66 0.5 12.78V5.22C0.5 3.83557 1.04996 2.50784 2.0289 1.5289C3.00784 0.549963 4.33557 0 5.72 0ZM5.54 1.8C4.6807 1.8 3.85659 2.14136 3.24897 2.74897C2.64136 3.35659 2.3 4.1807 2.3 5.04V12.96C2.3 14.751 3.749 16.2 5.54 16.2H13.46C14.3193 16.2 15.1434 15.8586 15.751 15.251C16.3586 14.6434 16.7 13.8193 16.7 12.96V5.04C16.7 3.249 15.251 1.8 13.46 1.8H5.54ZM14.225 3.15C14.5234 3.15 14.8095 3.26853 15.0205 3.4795C15.2315 3.69048 15.35 3.97663 15.35 4.275C15.35 4.57337 15.2315 4.85952 15.0205 5.0705C14.8095 5.28147 14.5234 5.4 14.225 5.4C13.9266 5.4 13.6405 5.28147 13.4295 5.0705C13.2185 4.85952 13.1 4.57337 13.1 4.275C13.1 3.97663 13.2185 3.69048 13.4295 3.4795C13.6405 3.26853 13.9266 3.15 14.225 3.15ZM9.5 4.5C10.6935 4.5 11.8381 4.97411 12.682 5.81802C13.5259 6.66193 14 7.80653 14 9C14 10.1935 13.5259 11.3381 12.682 12.182C11.8381 13.0259 10.6935 13.5 9.5 13.5C8.30653 13.5 7.16193 13.0259 6.31802 12.182C5.47411 11.3381 5 10.1935 5 9C5 7.80653 5.47411 6.66193 6.31802 5.81802C7.16193 4.97411 8.30653 4.5 9.5 4.5ZM9.5 6.3C8.78392 6.3 8.09716 6.58446 7.59081 7.09081C7.08446 7.59716 6.8 8.28392 6.8 9C6.8 9.71608 7.08446 10.4028 7.59081 10.9092C8.09716 11.4155 8.78392 11.7 9.5 11.7C10.2161 11.7 10.9028 11.4155 11.4092 10.9092C11.9155 10.4028 12.2 9.71608 12.2 9C12.2 8.28392 11.9155 7.59716 11.4092 7.09081C10.9028 6.58446 10.2161 6.3 9.5 6.3Z" fill="white"/>
</svg>
