<svg width="15" height="20" viewBox="0 0 15 20" fill="none" xmlns="http://www.w3.org/2000/svg">
<path d="M7.50158 9.85331C7.96303 9.85331 8.35754 9.66691 8.68509 9.29412C9.01265 8.92132 9.17642 8.47317 9.17642 7.94966C9.17642 7.42615 9.01212 6.9786 8.68351 6.607C8.35491 6.23539 7.95988 6.04959 7.49842 6.04959C7.03697 6.04959 6.64246 6.23599 6.31491 6.60878C5.98735 6.98158 5.82358 7.42973 5.82358 7.95324C5.82358 8.47675 5.98788 8.9243 6.31649 9.29591C6.64509 9.66751 7.04012 9.85331 7.50158 9.85331ZM7.5 20C5.16608 17.7056 3.41593 15.5704 2.24955 13.5944C1.08318 11.6183 0.5 9.80409 0.5 8.15174C0.5 5.72384 1.19227 3.75824 2.57682 2.25495C3.96136 0.751649 5.60242 0 7.5 0C9.39758 0 11.0386 0.751649 12.4232 2.25495C13.8077 3.75824 14.5 5.72384 14.5 8.15174C14.5 9.80409 13.9168 11.6183 12.7505 13.5944C11.5841 15.5704 9.83392 17.7056 7.5 20Z" fill="white"/>
</svg>
