<svg width="228" height="40" viewBox="0 0 228 40" fill="none" xmlns="http://www.w3.org/2000/svg">
<g clip-path="url(#clip0_23_353)">
<mask id="mask0_23_353" style="mask-type:luminance" maskUnits="userSpaceOnUse" x="35" y="0" width="36" height="40">
<path d="M70.9649 0H35.7144V39.9779H70.9649V0Z" fill="white"/>
</mask>
<g mask="url(#mask0_23_353)">
<path fill-rule="evenodd" clip-rule="evenodd" d="M35.7144 39.9779H49.2812C53.61 39.9779 57.3786 39.1213 60.587 37.4079C63.7949 35.6565 66.2878 33.2959 68.0658 30.3261C69.8825 27.3182 70.7908 23.8725 70.7908 19.989C70.7908 16.1054 69.8825 12.6787 68.0658 9.70891C66.2878 6.70105 63.7949 4.34046 60.587 2.62713C57.3786 0.875707 53.61 0 49.2812 0H35.7144V1.77045H49.1652C53.1464 1.77045 56.6057 2.55098 59.5433 4.11202C62.5192 5.67307 64.7999 7.82427 66.3845 10.5656C68.0078 13.307 68.8194 16.4481 68.8194 19.989C68.8194 23.5299 68.0078 26.671 66.3845 29.4124C64.7999 32.1537 62.5192 34.305 59.5433 35.8659C56.6057 37.4269 53.1464 38.2075 49.1652 38.2075H35.7144V39.9779Z" fill="#002966"/>
</g>
<mask id="mask1_23_353" style="mask-type:luminance" maskUnits="userSpaceOnUse" x="0" y="4" width="35" height="33">
<path d="M34.5547 4.11206H0V36.0944H34.5547V4.11206Z" fill="white"/>
</mask>
<g mask="url(#mask1_23_353)">
<path d="M0 36.0944V4.11206H3.80334L18.3674 28.2816H16.3265L30.705 4.11206H34.5084L34.5547 36.0944H30.1021L30.0557 11.0111H31.1225L18.321 32.2108H16.1874L3.29314 11.0111H4.4527V36.0944H0Z" fill="#002966"/>
</g>
<mask id="mask2_23_353" style="mask-type:luminance" maskUnits="userSpaceOnUse" x="35" y="4" width="33" height="33">
<path d="M67.0224 4.11206H35.7144V36.0944H67.0224V4.11206Z" fill="white"/>
</mask>
<g mask="url(#mask2_23_353)">
<path d="M35.7144 36.0944V4.11206H49.3971C52.8603 4.11206 55.9061 4.78217 58.5344 6.12239C61.1939 7.46261 63.25 9.33587 64.7032 11.7421C66.1877 14.1484 66.9294 16.9355 66.9294 20.1032C66.9294 23.271 66.1877 26.0581 64.7032 28.4644C63.25 30.8706 61.1939 32.7438 58.5344 34.0841C55.9061 35.4244 52.8603 36.0944 49.3971 36.0944H35.7144ZM40.3526 32.1195H49.1188C51.8092 32.1195 54.1281 31.6169 56.0761 30.6117C58.0549 29.6066 59.5855 28.2055 60.6678 26.4083C61.7502 24.5808 62.2911 22.4791 62.2911 20.1032C62.2911 17.6969 61.7502 15.5953 60.6678 13.7981C59.5855 12.001 58.0549 10.5999 56.0761 9.59477C54.1281 8.58959 51.8092 8.08703 49.1188 8.08703H40.3526V32.1195Z" fill="#002966"/>
</g>
</g>
<path d="M85.944 16.128C85.0907 16.128 84.2747 16 83.496 15.744C82.7173 15.4773 82.104 15.136 81.656 14.72L82.248 13.472C82.6747 13.8453 83.2187 14.1547 83.88 14.4C84.5413 14.6453 85.2293 14.768 85.944 14.768C86.5947 14.768 87.1227 14.6933 87.528 14.544C87.9333 14.3947 88.232 14.192 88.424 13.936C88.616 13.6693 88.712 13.3707 88.712 13.04C88.712 12.656 88.584 12.3467 88.328 12.112C88.0827 11.8773 87.7573 11.6907 87.352 11.552C86.9573 11.4027 86.52 11.2747 86.04 11.168C85.56 11.0613 85.0747 10.9387 84.584 10.8C84.104 10.6507 83.6613 10.464 83.256 10.24C82.8613 10.016 82.5413 9.71733 82.296 9.344C82.0507 8.96 81.928 8.46933 81.928 7.872C81.928 7.296 82.0773 6.768 82.376 6.288C82.6853 5.79733 83.1547 5.408 83.784 5.12C84.424 4.82133 85.2347 4.672 86.216 4.672C86.8667 4.672 87.512 4.75733 88.152 4.928C88.792 5.09867 89.3467 5.344 89.816 5.664L89.288 6.944C88.808 6.624 88.3013 6.39467 87.768 6.256C87.2347 6.10667 86.7173 6.032 86.216 6.032C85.5867 6.032 85.0693 6.112 84.664 6.272C84.2587 6.432 83.96 6.64533 83.768 6.912C83.5867 7.17867 83.496 7.47733 83.496 7.808C83.496 8.20267 83.6187 8.51733 83.864 8.752C84.12 8.98667 84.4453 9.17333 84.84 9.312C85.2453 9.45067 85.688 9.57867 86.168 9.696C86.648 9.80267 87.128 9.92533 87.608 10.064C88.0987 10.2027 88.5413 10.384 88.936 10.608C89.3413 10.832 89.6667 11.1307 89.912 11.504C90.1573 11.8773 90.28 12.3573 90.28 12.944C90.28 13.5093 90.1253 14.0373 89.816 14.528C89.5067 15.008 89.0267 15.3973 88.376 15.696C87.736 15.984 86.9253 16.128 85.944 16.128ZM94.6975 16V4.8H96.2975V16H94.6975ZM101.731 16V4.8H103.043L110.451 14H109.763V4.8H111.363V16H110.051L102.643 6.8H103.331V16H101.731ZM116.795 16V4.8H121.515C122.71 4.8 123.76 5.03467 124.667 5.504C125.584 5.97333 126.294 6.62933 126.795 7.472C127.307 8.31467 127.563 9.29067 127.563 10.4C127.563 11.5093 127.307 12.4853 126.795 13.328C126.294 14.1707 125.584 14.8267 124.667 15.296C123.76 15.7653 122.71 16 121.515 16H116.795ZM118.395 14.608H121.419C122.347 14.608 123.147 14.432 123.819 14.08C124.502 13.728 125.03 13.2373 125.403 12.608C125.776 11.968 125.963 11.232 125.963 10.4C125.963 9.55733 125.776 8.82133 125.403 8.192C125.03 7.56267 124.502 7.072 123.819 6.72C123.147 6.368 122.347 6.192 121.419 6.192H118.395V14.608ZM132.094 16V4.8H133.694V16H132.094ZM144.135 16.128C143.282 16.128 142.492 15.9893 141.767 15.712C141.052 15.424 140.428 15.024 139.895 14.512C139.372 13.9893 138.962 13.3813 138.663 12.688C138.364 11.9947 138.215 11.232 138.215 10.4C138.215 9.568 138.364 8.80533 138.663 8.112C138.962 7.41867 139.378 6.816 139.911 6.304C140.444 5.78133 141.068 5.38133 141.783 5.104C142.508 4.816 143.298 4.672 144.151 4.672C145.015 4.672 145.81 4.82133 146.535 5.12C147.271 5.408 147.895 5.84 148.407 6.416L147.367 7.424C146.94 6.976 146.46 6.64533 145.927 6.432C145.394 6.208 144.823 6.096 144.215 6.096C143.586 6.096 142.999 6.20267 142.455 6.416C141.922 6.62933 141.458 6.928 141.063 7.312C140.668 7.696 140.359 8.15467 140.135 8.688C139.922 9.21067 139.815 9.78133 139.815 10.4C139.815 11.0187 139.922 11.5947 140.135 12.128C140.359 12.6507 140.668 13.104 141.063 13.488C141.458 13.872 141.922 14.1707 142.455 14.384C142.999 14.5973 143.586 14.704 144.215 14.704C144.823 14.704 145.394 14.5973 145.927 14.384C146.46 14.16 146.94 13.8187 147.367 13.36L148.407 14.368C147.895 14.944 147.271 15.3813 146.535 15.68C145.81 15.9787 145.01 16.128 144.135 16.128ZM150.808 16L155.88 4.8H157.464L162.552 16H160.872L156.344 5.696H156.984L152.456 16H150.808ZM152.968 13.2L153.4 11.92H159.704L160.168 13.2H152.968ZM153.816 3.888L155.944 1.808H157.416L159.544 3.888H158.152L156.04 2.128H157.32L155.208 3.888H153.816ZM166.302 16V4.8H167.614L175.022 14H174.334V4.8H175.934V16H174.622L167.214 6.8H167.902V16H166.302ZM186.375 16.128C185.522 16.128 184.732 15.9893 184.007 15.712C183.292 15.424 182.668 15.024 182.135 14.512C181.612 13.9893 181.202 13.3813 180.903 12.688C180.604 11.9947 180.455 11.232 180.455 10.4C180.455 9.568 180.604 8.80533 180.903 8.112C181.202 7.41867 181.618 6.816 182.151 6.304C182.684 5.78133 183.308 5.38133 184.023 5.104C184.748 4.816 185.538 4.672 186.391 4.672C187.255 4.672 188.05 4.82133 188.775 5.12C189.511 5.408 190.135 5.84 190.647 6.416L189.607 7.424C189.18 6.976 188.7 6.64533 188.167 6.432C187.634 6.208 187.063 6.096 186.455 6.096C185.826 6.096 185.239 6.20267 184.695 6.416C184.162 6.62933 183.698 6.928 183.303 7.312C182.908 7.696 182.599 8.15467 182.375 8.688C182.162 9.21067 182.055 9.78133 182.055 10.4C182.055 11.0187 182.162 11.5947 182.375 12.128C182.599 12.6507 182.908 13.104 183.303 13.488C183.698 13.872 184.162 14.1707 184.695 14.384C185.239 14.5973 185.826 14.704 186.455 14.704C187.063 14.704 187.634 14.5973 188.167 14.384C188.7 14.16 189.18 13.8187 189.607 13.36L190.647 14.368C190.135 14.944 189.511 15.3813 188.775 15.68C188.05 15.9787 187.25 16.128 186.375 16.128ZM195.009 16V4.8H196.609V16H195.009ZM200.347 16L205.419 4.8H207.003L212.091 16H210.411L205.883 5.696H206.523L201.995 16H200.347ZM202.507 13.2L202.939 11.92H209.243L209.707 13.2H202.507ZM82.68 36V24.8H87.048C88.0293 24.8 88.8667 24.9547 89.56 25.264C90.2533 25.5733 90.7867 26.0213 91.16 26.608C91.5333 27.1947 91.72 27.8933 91.72 28.704C91.72 29.5147 91.5333 30.2133 91.16 30.8C90.7867 31.376 90.2533 31.824 89.56 32.144C88.8667 32.4533 88.0293 32.608 87.048 32.608H83.56L84.28 31.856V36H82.68ZM84.28 32.016L83.56 31.216H87C88.024 31.216 88.7973 30.9973 89.32 30.56C89.8533 30.1227 90.12 29.504 90.12 28.704C90.12 27.904 89.8533 27.2853 89.32 26.848C88.7973 26.4107 88.024 26.192 87 26.192H83.56L84.28 25.392V32.016ZM96.1506 36V24.8H100.519C101.5 24.8 102.337 24.9547 103.031 25.264C103.724 25.5733 104.257 26.0213 104.631 26.608C105.004 27.1947 105.191 27.8933 105.191 28.704C105.191 29.5147 105.004 30.2133 104.631 30.8C104.257 31.376 103.724 31.8187 103.031 32.128C102.337 32.4373 101.5 32.592 100.519 32.592H97.0306L97.7506 31.856V36H96.1506ZM103.639 36L100.791 31.936H102.503L105.383 36H103.639ZM97.7506 32.016L97.0306 31.232H100.471C101.495 31.232 102.268 31.0133 102.791 30.576C103.324 30.128 103.591 29.504 103.591 28.704C103.591 27.904 103.324 27.2853 102.791 26.848C102.268 26.4107 101.495 26.192 100.471 26.192H97.0306L97.7506 25.392V32.016ZM114.912 36.128C114.058 36.128 113.264 35.984 112.528 35.696C111.802 35.408 111.173 35.008 110.64 34.496C110.106 33.9733 109.69 33.3653 109.392 32.672C109.093 31.9787 108.944 31.2213 108.944 30.4C108.944 29.5787 109.093 28.8213 109.392 28.128C109.69 27.4347 110.106 26.832 110.64 26.32C111.173 25.7973 111.802 25.392 112.528 25.104C113.253 24.816 114.048 24.672 114.912 24.672C115.765 24.672 116.549 24.816 117.264 25.104C117.989 25.3813 118.618 25.7813 119.152 26.304C119.696 26.816 120.112 27.4187 120.4 28.112C120.698 28.8053 120.848 29.568 120.848 30.4C120.848 31.232 120.698 31.9947 120.4 32.688C120.112 33.3813 119.696 33.9893 119.152 34.512C118.618 35.024 117.989 35.424 117.264 35.712C116.549 35.9893 115.765 36.128 114.912 36.128ZM114.912 34.704C115.53 34.704 116.101 34.5973 116.624 34.384C117.157 34.1707 117.616 33.872 118 33.488C118.394 33.0933 118.698 32.6347 118.912 32.112C119.136 31.5893 119.248 31.0187 119.248 30.4C119.248 29.7813 119.136 29.2107 118.912 28.688C118.698 28.1653 118.394 27.712 118 27.328C117.616 26.9333 117.157 26.6293 116.624 26.416C116.101 26.2027 115.53 26.096 114.912 26.096C114.282 26.096 113.701 26.2027 113.168 26.416C112.645 26.6293 112.186 26.9333 111.792 27.328C111.397 27.712 111.088 28.1653 110.864 28.688C110.65 29.2107 110.544 29.7813 110.544 30.4C110.544 31.0187 110.65 31.5893 110.864 32.112C111.088 32.6347 111.397 33.0933 111.792 33.488C112.186 33.872 112.645 34.1707 113.168 34.384C113.701 34.5973 114.282 34.704 114.912 34.704ZM126.813 30.096H132.589V31.472H126.813V30.096ZM126.973 36H125.373V24.8H133.277V26.192H126.973V36ZM137.609 36V24.8H139.209V36H137.609ZM147.907 36.128C147.053 36.128 146.237 36 145.459 35.744C144.68 35.4773 144.067 35.136 143.619 34.72L144.211 33.472C144.637 33.8453 145.181 34.1547 145.843 34.4C146.504 34.6453 147.192 34.768 147.907 34.768C148.557 34.768 149.085 34.6933 149.491 34.544C149.896 34.3947 150.195 34.192 150.387 33.936C150.579 33.6693 150.675 33.3707 150.675 33.04C150.675 32.656 150.547 32.3467 150.291 32.112C150.045 31.8773 149.72 31.6907 149.315 31.552C148.92 31.4027 148.483 31.2747 148.003 31.168C147.523 31.0613 147.037 30.9387 146.547 30.8C146.067 30.6507 145.624 30.464 145.219 30.24C144.824 30.016 144.504 29.7173 144.259 29.344C144.013 28.96 143.891 28.4693 143.891 27.872C143.891 27.296 144.04 26.768 144.339 26.288C144.648 25.7973 145.117 25.408 145.747 25.12C146.387 24.8213 147.197 24.672 148.179 24.672C148.829 24.672 149.475 24.7573 150.115 24.928C150.755 25.0987 151.309 25.344 151.779 25.664L151.251 26.944C150.771 26.624 150.264 26.3947 149.731 26.256C149.197 26.1067 148.68 26.032 148.179 26.032C147.549 26.032 147.032 26.112 146.627 26.272C146.221 26.432 145.923 26.6453 145.731 26.912C145.549 27.1787 145.459 27.4773 145.459 27.808C145.459 28.2027 145.581 28.5173 145.827 28.752C146.083 28.9867 146.408 29.1733 146.803 29.312C147.208 29.4507 147.651 29.5787 148.131 29.696C148.611 29.8027 149.091 29.9253 149.571 30.064C150.061 30.2027 150.504 30.384 150.899 30.608C151.304 30.832 151.629 31.1307 151.875 31.504C152.12 31.8773 152.243 32.3573 152.243 32.944C152.243 33.5093 152.088 34.0373 151.779 34.528C151.469 35.008 150.989 35.3973 150.339 35.696C149.699 35.984 148.888 36.128 147.907 36.128ZM159.924 36.128C159.071 36.128 158.255 36 157.476 35.744C156.697 35.4773 156.084 35.136 155.636 34.72L156.228 33.472C156.655 33.8453 157.199 34.1547 157.86 34.4C158.521 34.6453 159.209 34.768 159.924 34.768C160.575 34.768 161.103 34.6933 161.508 34.544C161.913 34.3947 162.212 34.192 162.404 33.936C162.596 33.6693 162.692 33.3707 162.692 33.04C162.692 32.656 162.564 32.3467 162.308 32.112C162.063 31.8773 161.737 31.6907 161.332 31.552C160.937 31.4027 160.5 31.2747 160.02 31.168C159.54 31.0613 159.055 30.9387 158.564 30.8C158.084 30.6507 157.641 30.464 157.236 30.24C156.841 30.016 156.521 29.7173 156.276 29.344C156.031 28.96 155.908 28.4693 155.908 27.872C155.908 27.296 156.057 26.768 156.356 26.288C156.665 25.7973 157.135 25.408 157.764 25.12C158.404 24.8213 159.215 24.672 160.196 24.672C160.847 24.672 161.492 24.7573 162.132 24.928C162.772 25.0987 163.327 25.344 163.796 25.664L163.268 26.944C162.788 26.624 162.281 26.3947 161.748 26.256C161.215 26.1067 160.697 26.032 160.196 26.032C159.567 26.032 159.049 26.112 158.644 26.272C158.239 26.432 157.94 26.6453 157.748 26.912C157.567 27.1787 157.476 27.4773 157.476 27.808C157.476 28.2027 157.599 28.5173 157.844 28.752C158.1 28.9867 158.425 29.1733 158.82 29.312C159.225 29.4507 159.668 29.5787 160.148 29.696C160.628 29.8027 161.108 29.9253 161.588 30.064C162.079 30.2027 162.521 30.384 162.916 30.608C163.321 30.832 163.647 31.1307 163.892 31.504C164.137 31.8773 164.26 32.3573 164.26 32.944C164.26 33.5093 164.105 34.0373 163.796 34.528C163.487 35.008 163.007 35.3973 162.356 35.696C161.716 35.984 160.905 36.128 159.924 36.128ZM168.677 36V24.8H170.277V36H168.677ZM180.767 36.128C179.913 36.128 179.119 35.984 178.383 35.696C177.657 35.408 177.028 35.008 176.495 34.496C175.961 33.9733 175.545 33.3653 175.247 32.672C174.948 31.9787 174.799 31.2213 174.799 30.4C174.799 29.5787 174.948 28.8213 175.247 28.128C175.545 27.4347 175.961 26.832 176.495 26.32C177.028 25.7973 177.657 25.392 178.383 25.104C179.108 24.816 179.903 24.672 180.767 24.672C181.62 24.672 182.404 24.816 183.119 25.104C183.844 25.3813 184.473 25.7813 185.007 26.304C185.551 26.816 185.967 27.4187 186.255 28.112C186.553 28.8053 186.703 29.568 186.703 30.4C186.703 31.232 186.553 31.9947 186.255 32.688C185.967 33.3813 185.551 33.9893 185.007 34.512C184.473 35.024 183.844 35.424 183.119 35.712C182.404 35.9893 181.62 36.128 180.767 36.128ZM180.767 34.704C181.385 34.704 181.956 34.5973 182.479 34.384C183.012 34.1707 183.471 33.872 183.855 33.488C184.249 33.0933 184.553 32.6347 184.767 32.112C184.991 31.5893 185.103 31.0187 185.103 30.4C185.103 29.7813 184.991 29.2107 184.767 28.688C184.553 28.1653 184.249 27.712 183.855 27.328C183.471 26.9333 183.012 26.6293 182.479 26.416C181.956 26.2027 181.385 26.096 180.767 26.096C180.137 26.096 179.556 26.2027 179.023 26.416C178.5 26.6293 178.041 26.9333 177.647 27.328C177.252 27.712 176.943 28.1653 176.719 28.688C176.505 29.2107 176.399 29.7813 176.399 30.4C176.399 31.0187 176.505 31.5893 176.719 32.112C176.943 32.6347 177.252 33.0933 177.647 33.488C178.041 33.872 178.5 34.1707 179.023 34.384C179.556 34.5973 180.137 34.704 180.767 34.704ZM191.228 36V24.8H192.54L199.948 34H199.26V24.8H200.86V36H199.548L192.14 26.8H192.828V36H191.228ZM204.597 36L209.669 24.8H211.253L216.341 36H214.661L210.133 25.696H210.773L206.245 36H204.597ZM206.757 33.2L207.189 31.92H213.493L213.957 33.2H206.757ZM220.091 36V24.8H221.691V34.608H227.755V36H220.091Z" fill="#002966"/>
<defs>
<clipPath id="clip0_23_353">
<rect width="71" height="40" fill="white"/>
</clipPath>
</defs>
</svg>
