<svg width="202" height="40" viewBox="0 0 202 40" fill="none" xmlns="http://www.w3.org/2000/svg">
<g clip-path="url(#clip0_23_353)">
<mask id="mask0_23_353" style="mask-type:luminance" maskUnits="userSpaceOnUse" x="35" y="0" width="36" height="40">
<path d="M70.9649 0H35.7144V39.9779H70.9649V0Z" fill="white"/>
</mask>
<g mask="url(#mask0_23_353)">
<path fill-rule="evenodd" clip-rule="evenodd" d="M35.7144 39.9779H49.2812C53.61 39.9779 57.3786 39.1213 60.587 37.4079C63.7949 35.6565 66.2878 33.2959 68.0658 30.3261C69.8825 27.3182 70.7908 23.8725 70.7908 19.989C70.7908 16.1054 69.8825 12.6787 68.0658 9.70891C66.2878 6.70105 63.7949 4.34046 60.587 2.62713C57.3786 0.875707 53.61 0 49.2812 0H35.7144V1.77045H49.1652C53.1464 1.77045 56.6057 2.55098 59.5433 4.11202C62.5192 5.67307 64.7999 7.82427 66.3845 10.5656C68.0078 13.307 68.8194 16.4481 68.8194 19.989C68.8194 23.5299 68.0078 26.671 66.3845 29.4124C64.7999 32.1537 62.5192 34.305 59.5433 35.8659C56.6057 37.4269 53.1464 38.2075 49.1652 38.2075H35.7144V39.9779Z" fill="#004BFF"/>
</g>
<mask id="mask1_23_353" style="mask-type:luminance" maskUnits="userSpaceOnUse" x="0" y="4" width="35" height="33">
<path d="M34.5547 4.11206H0V36.0944H34.5547V4.11206Z" fill="white"/>
</mask>
<g mask="url(#mask1_23_353)">
<path d="M0 36.0944V4.11206H3.80334L18.3674 28.2816H16.3265L30.705 4.11206H34.5084L34.5547 36.0944H30.1021L30.0557 11.0111H31.1225L18.321 32.2108H16.1874L3.29314 11.0111H4.4527V36.0944H0Z" fill="#004BFF"/>
</g>
<mask id="mask2_23_353" style="mask-type:luminance" maskUnits="userSpaceOnUse" x="35" y="4" width="33" height="33">
<path d="M67.0224 4.11206H35.7144V36.0944H67.0224V4.11206Z" fill="white"/>
</mask>
<g mask="url(#mask2_23_353)">
<path d="M35.7144 36.0944V4.11206H49.3971C52.8603 4.11206 55.9061 4.78217 58.5344 6.12239C61.1939 7.46261 63.25 9.33587 64.7032 11.7421C66.1877 14.1484 66.9294 16.9355 66.9294 20.1032C66.9294 23.271 66.1877 26.0581 64.7032 28.4644C63.25 30.8706 61.1939 32.7438 58.5344 34.0841C55.9061 35.4244 52.8603 36.0944 49.3971 36.0944H35.7144ZM40.3526 32.1195H49.1188C51.8092 32.1195 54.1281 31.6169 56.0761 30.6117C58.0549 29.6066 59.5855 28.2055 60.6678 26.4083C61.7502 24.5808 62.2911 22.4791 62.2911 20.1032C62.2911 17.6969 61.7502 15.5953 60.6678 13.7981C59.5855 12.001 58.0549 10.5999 56.0761 9.59477C54.1281 8.58959 51.8092 8.08703 49.1188 8.08703H40.3526V32.1195Z" fill="#004BFF"/>
</g>
</g>
<path d="M80.976 16.16C80.1013 16.16 79.264 16.0373 78.464 15.792C77.664 15.536 77.0293 15.2107 76.56 14.816L77.28 13.2C77.728 13.552 78.2827 13.8453 78.944 14.08C79.6053 14.3147 80.2827 14.432 80.976 14.432C81.5627 14.432 82.0373 14.368 82.4 14.24C82.7627 14.112 83.0293 13.9413 83.2 13.728C83.3707 13.504 83.456 13.2533 83.456 12.976C83.456 12.6347 83.3333 12.3627 83.088 12.16C82.8427 11.9467 82.5227 11.7813 82.128 11.664C81.744 11.536 81.312 11.4187 80.832 11.312C80.3627 11.2053 79.888 11.0827 79.408 10.944C78.9387 10.7947 78.5067 10.608 78.112 10.384C77.728 10.1493 77.4133 9.84 77.168 9.456C76.9227 9.072 76.8 8.58133 76.8 7.984C76.8 7.376 76.96 6.82133 77.28 6.32C77.6107 5.808 78.1067 5.40267 78.768 5.104C79.44 4.79467 80.288 4.64 81.312 4.64C81.984 4.64 82.6507 4.72533 83.312 4.896C83.9733 5.06667 84.5493 5.312 85.04 5.632L84.384 7.248C83.8827 6.94933 83.3653 6.73067 82.832 6.592C82.2987 6.44267 81.7867 6.368 81.296 6.368C80.72 6.368 80.2507 6.43733 79.888 6.576C79.536 6.71467 79.2747 6.896 79.104 7.12C78.944 7.344 78.864 7.6 78.864 7.888C78.864 8.22933 78.9813 8.50667 79.216 8.72C79.4613 8.92267 79.776 9.08267 80.16 9.2C80.5547 9.31733 80.992 9.43467 81.472 9.552C81.952 9.65867 82.4267 9.78133 82.896 9.92C83.376 10.0587 83.808 10.24 84.192 10.464C84.5867 10.688 84.9013 10.992 85.136 11.376C85.3813 11.76 85.504 12.2453 85.504 12.832C85.504 13.4293 85.3387 13.984 85.008 14.496C84.688 14.9973 84.192 15.4027 83.52 15.712C82.848 16.0107 82 16.16 80.976 16.16ZM87.5665 16V4.8H89.6465V16H87.5665ZM92.6759 16V4.8H94.3879L101.412 13.424H100.564V4.8H102.628V16H100.916L93.8919 7.376H94.7399V16H92.6759ZM105.629 16V4.8H110.525C111.741 4.8 112.808 5.03467 113.725 5.504C114.642 5.97333 115.357 6.624 115.869 7.456C116.381 8.288 116.637 9.26933 116.637 10.4C116.637 11.52 116.381 12.5013 115.869 13.344C115.357 14.176 114.642 14.8267 113.725 15.296C112.808 15.7653 111.741 16 110.525 16H105.629ZM107.709 14.24H110.429C111.272 14.24 111.997 14.08 112.605 13.76C113.224 13.44 113.698 12.992 114.029 12.416C114.37 11.84 114.541 11.168 114.541 10.4C114.541 9.62133 114.37 8.94933 114.029 8.384C113.698 7.808 113.224 7.36 112.605 7.04C111.997 6.72 111.272 6.56 110.429 6.56H107.709V14.24ZM118.848 16V4.8H120.928V16H118.848ZM129.141 16.16C128.288 16.16 127.493 16.0213 126.757 15.744C126.032 15.456 125.397 15.056 124.853 14.544C124.32 14.0213 123.904 13.408 123.605 12.704C123.306 12 123.157 11.232 123.157 10.4C123.157 9.568 123.306 8.8 123.605 8.096C123.904 7.392 124.325 6.784 124.869 6.272C125.413 5.74933 126.048 5.34933 126.773 5.072C127.498 4.784 128.293 4.64 129.157 4.64C130.074 4.64 130.912 4.8 131.669 5.12C132.426 5.42933 133.066 5.89333 133.589 6.512L132.245 7.776C131.84 7.33867 131.386 7.01333 130.885 6.8C130.384 6.576 129.84 6.464 129.253 6.464C128.666 6.464 128.128 6.56 127.637 6.752C127.157 6.944 126.736 7.216 126.373 7.568C126.021 7.92 125.744 8.336 125.541 8.816C125.349 9.296 125.253 9.824 125.253 10.4C125.253 10.976 125.349 11.504 125.541 11.984C125.744 12.464 126.021 12.88 126.373 13.232C126.736 13.584 127.157 13.856 127.637 14.048C128.128 14.24 128.666 14.336 129.253 14.336C129.84 14.336 130.384 14.2293 130.885 14.016C131.386 13.792 131.84 13.456 132.245 13.008L133.589 14.288C133.066 14.896 132.426 15.36 131.669 15.68C130.912 16 130.069 16.16 129.141 16.16ZM133.764 16L138.804 4.8H140.852L145.908 16H143.732L139.396 5.904H140.228L135.908 16H133.764ZM136.084 13.408L136.644 11.776H142.692L143.252 13.408H136.084ZM136.772 3.888L138.916 1.696H140.74L142.884 3.888H141.236L139.06 2.048H140.596L138.42 3.888H136.772ZM147.332 16V4.8H149.044L156.068 13.424H155.22V4.8H157.284V16H155.572L148.548 7.376H149.396V16H147.332ZM165.469 16.16C164.616 16.16 163.821 16.0213 163.085 15.744C162.36 15.456 161.725 15.056 161.181 14.544C160.648 14.0213 160.232 13.408 159.933 12.704C159.635 12 159.485 11.232 159.485 10.4C159.485 9.568 159.635 8.8 159.933 8.096C160.232 7.392 160.653 6.784 161.197 6.272C161.741 5.74933 162.376 5.34933 163.101 5.072C163.827 4.784 164.621 4.64 165.485 4.64C166.403 4.64 167.24 4.8 167.997 5.12C168.755 5.42933 169.395 5.89333 169.917 6.512L168.573 7.776C168.168 7.33867 167.715 7.01333 167.213 6.8C166.712 6.576 166.168 6.464 165.581 6.464C164.995 6.464 164.456 6.56 163.965 6.752C163.485 6.944 163.064 7.216 162.701 7.568C162.349 7.92 162.072 8.336 161.869 8.816C161.677 9.296 161.581 9.824 161.581 10.4C161.581 10.976 161.677 11.504 161.869 11.984C162.072 12.464 162.349 12.88 162.701 13.232C163.064 13.584 163.485 13.856 163.965 14.048C164.456 14.24 164.995 14.336 165.581 14.336C166.168 14.336 166.712 14.2293 167.213 14.016C167.715 13.792 168.168 13.456 168.573 13.008L169.917 14.288C169.395 14.896 168.755 15.36 167.997 15.68C167.24 16 166.397 16.16 165.469 16.16ZM171.91 16V4.8H173.99V16H171.91ZM175.436 16L180.476 4.8H182.524L187.58 16H185.404L181.068 5.904H181.9L177.58 16H175.436ZM177.756 13.408L178.316 11.776H184.364L184.924 13.408H177.756ZM77.504 36V24.8H82.112C83.104 24.8 83.952 24.96 84.656 25.28C85.3707 25.6 85.92 26.0587 86.304 26.656C86.688 27.2533 86.88 27.9627 86.88 28.784C86.88 29.6053 86.688 30.3147 86.304 30.912C85.92 31.5093 85.3707 31.968 84.656 32.288C83.952 32.608 83.104 32.768 82.112 32.768H78.656L79.584 31.792V36H77.504ZM79.584 32.016L78.656 31.008H82.016C82.9333 31.008 83.6213 30.816 84.08 30.432C84.5493 30.0373 84.784 29.488 84.784 28.784C84.784 28.0693 84.5493 27.52 84.08 27.136C83.6213 26.752 82.9333 26.56 82.016 26.56H78.656L79.584 25.536V32.016ZM88.9571 36V24.8H93.5651C94.5571 24.8 95.4051 24.96 96.1091 25.28C96.8238 25.6 97.3731 26.0587 97.7571 26.656C98.1411 27.2533 98.3331 27.9627 98.3331 28.784C98.3331 29.6053 98.1411 30.3147 97.7571 30.912C97.3731 31.4987 96.8238 31.952 96.1091 32.272C95.4051 32.5813 94.5571 32.736 93.5651 32.736H90.1091L91.0371 31.792V36H88.9571ZM96.2851 36L93.4531 31.936H95.6771L98.5251 36H96.2851ZM91.0371 32.016L90.1091 31.024H93.4691C94.3865 31.024 95.0745 30.8267 95.5331 30.432C96.0025 30.0373 96.2371 29.488 96.2371 28.784C96.2371 28.0693 96.0025 27.52 95.5331 27.136C95.0745 26.752 94.3865 26.56 93.4691 26.56H90.1091L91.0371 25.536V32.016ZM105.908 36.16C105.034 36.16 104.228 36.016 103.492 35.728C102.756 35.44 102.116 35.04 101.572 34.528C101.028 34.0053 100.607 33.3973 100.308 32.704C100.01 32 99.8603 31.232 99.8603 30.4C99.8603 29.568 100.01 28.8053 100.308 28.112C100.607 27.408 101.028 26.8 101.572 26.288C102.116 25.7653 102.756 25.36 103.492 25.072C104.228 24.784 105.028 24.64 105.892 24.64C106.767 24.64 107.567 24.784 108.292 25.072C109.028 25.36 109.668 25.7653 110.212 26.288C110.756 26.8 111.178 27.408 111.476 28.112C111.775 28.8053 111.924 29.568 111.924 30.4C111.924 31.232 111.775 32 111.476 32.704C111.178 33.408 110.756 34.016 110.212 34.528C109.668 35.04 109.028 35.44 108.292 35.728C107.567 36.016 106.772 36.16 105.908 36.16ZM105.892 34.336C106.458 34.336 106.98 34.24 107.46 34.048C107.94 33.856 108.356 33.584 108.708 33.232C109.06 32.8693 109.332 32.4533 109.524 31.984C109.727 31.504 109.828 30.976 109.828 30.4C109.828 29.824 109.727 29.3013 109.524 28.832C109.332 28.352 109.06 27.936 108.708 27.584C108.356 27.2213 107.94 26.944 107.46 26.752C106.98 26.56 106.458 26.464 105.892 26.464C105.327 26.464 104.804 26.56 104.324 26.752C103.855 26.944 103.439 27.2213 103.076 27.584C102.724 27.936 102.447 28.352 102.244 28.832C102.052 29.3013 101.956 29.824 101.956 30.4C101.956 30.9653 102.052 31.488 102.244 31.968C102.447 32.448 102.724 32.8693 103.076 33.232C103.428 33.584 103.844 33.856 104.324 34.048C104.804 34.24 105.327 34.336 105.892 34.336ZM116.033 29.952H121.617V31.712H116.033V29.952ZM116.209 36H114.129V24.8H122.305V26.544H116.209V36ZM124.317 36V24.8H126.397V36H124.317ZM132.898 36.16C132.023 36.16 131.186 36.0373 130.386 35.792C129.586 35.536 128.951 35.2107 128.482 34.816L129.202 33.2C129.65 33.552 130.205 33.8453 130.866 34.08C131.527 34.3147 132.205 34.432 132.898 34.432C133.485 34.432 133.959 34.368 134.322 34.24C134.685 34.112 134.951 33.9413 135.122 33.728C135.293 33.504 135.378 33.2533 135.378 32.976C135.378 32.6347 135.255 32.3627 135.01 32.16C134.765 31.9467 134.445 31.7813 134.05 31.664C133.666 31.536 133.234 31.4187 132.754 31.312C132.285 31.2053 131.81 31.0827 131.33 30.944C130.861 30.7947 130.429 30.608 130.034 30.384C129.65 30.1493 129.335 29.84 129.09 29.456C128.845 29.072 128.722 28.5813 128.722 27.984C128.722 27.376 128.882 26.8213 129.202 26.32C129.533 25.808 130.029 25.4027 130.69 25.104C131.362 24.7947 132.21 24.64 133.234 24.64C133.906 24.64 134.573 24.7253 135.234 24.896C135.895 25.0667 136.471 25.312 136.962 25.632L136.306 27.248C135.805 26.9493 135.287 26.7307 134.754 26.592C134.221 26.4427 133.709 26.368 133.218 26.368C132.642 26.368 132.173 26.4373 131.81 26.576C131.458 26.7147 131.197 26.896 131.026 27.12C130.866 27.344 130.786 27.6 130.786 27.888C130.786 28.2293 130.903 28.5067 131.138 28.72C131.383 28.9227 131.698 29.0827 132.082 29.2C132.477 29.3173 132.914 29.4347 133.394 29.552C133.874 29.6587 134.349 29.7813 134.818 29.92C135.298 30.0587 135.73 30.24 136.114 30.464C136.509 30.688 136.823 30.992 137.058 31.376C137.303 31.76 137.426 32.2453 137.426 32.832C137.426 33.4293 137.261 33.984 136.93 34.496C136.61 34.9973 136.114 35.4027 135.442 35.712C134.77 36.0107 133.922 36.16 132.898 36.16ZM142.96 36.16C142.086 36.16 141.248 36.0373 140.448 35.792C139.648 35.536 139.014 35.2107 138.544 34.816L139.264 33.2C139.712 33.552 140.267 33.8453 140.928 34.08C141.59 34.3147 142.267 34.432 142.96 34.432C143.547 34.432 144.022 34.368 144.384 34.24C144.747 34.112 145.014 33.9413 145.184 33.728C145.355 33.504 145.44 33.2533 145.44 32.976C145.44 32.6347 145.318 32.3627 145.072 32.16C144.827 31.9467 144.507 31.7813 144.112 31.664C143.728 31.536 143.296 31.4187 142.816 31.312C142.347 31.2053 141.872 31.0827 141.392 30.944C140.923 30.7947 140.491 30.608 140.096 30.384C139.712 30.1493 139.398 29.84 139.152 29.456C138.907 29.072 138.784 28.5813 138.784 27.984C138.784 27.376 138.944 26.8213 139.264 26.32C139.595 25.808 140.091 25.4027 140.752 25.104C141.424 24.7947 142.272 24.64 143.296 24.64C143.968 24.64 144.635 24.7253 145.296 24.896C145.958 25.0667 146.534 25.312 147.024 25.632L146.368 27.248C145.867 26.9493 145.35 26.7307 144.816 26.592C144.283 26.4427 143.771 26.368 143.28 26.368C142.704 26.368 142.235 26.4373 141.872 26.576C141.52 26.7147 141.259 26.896 141.088 27.12C140.928 27.344 140.848 27.6 140.848 27.888C140.848 28.2293 140.966 28.5067 141.2 28.72C141.446 28.9227 141.76 29.0827 142.144 29.2C142.539 29.3173 142.976 29.4347 143.456 29.552C143.936 29.6587 144.411 29.7813 144.88 29.92C145.36 30.0587 145.792 30.24 146.176 30.464C146.571 30.688 146.886 30.992 147.12 31.376C147.366 31.76 147.488 32.2453 147.488 32.832C147.488 33.4293 147.323 33.984 146.992 34.496C146.672 34.9973 146.176 35.4027 145.504 35.712C144.832 36.0107 143.984 36.16 142.96 36.16ZM149.551 36V24.8H151.631V36H149.551ZM159.908 36.16C159.034 36.16 158.228 36.016 157.492 35.728C156.756 35.44 156.116 35.04 155.572 34.528C155.028 34.0053 154.607 33.3973 154.308 32.704C154.01 32 153.86 31.232 153.86 30.4C153.86 29.568 154.01 28.8053 154.308 28.112C154.607 27.408 155.028 26.8 155.572 26.288C156.116 25.7653 156.756 25.36 157.492 25.072C158.228 24.784 159.028 24.64 159.892 24.64C160.767 24.64 161.567 24.784 162.292 25.072C163.028 25.36 163.668 25.7653 164.212 26.288C164.756 26.8 165.178 27.408 165.476 28.112C165.775 28.8053 165.924 29.568 165.924 30.4C165.924 31.232 165.775 32 165.476 32.704C165.178 33.408 164.756 34.016 164.212 34.528C163.668 35.04 163.028 35.44 162.292 35.728C161.567 36.016 160.772 36.16 159.908 36.16ZM159.892 34.336C160.458 34.336 160.98 34.24 161.46 34.048C161.94 33.856 162.356 33.584 162.708 33.232C163.06 32.8693 163.332 32.4533 163.524 31.984C163.727 31.504 163.828 30.976 163.828 30.4C163.828 29.824 163.727 29.3013 163.524 28.832C163.332 28.352 163.06 27.936 162.708 27.584C162.356 27.2213 161.94 26.944 161.46 26.752C160.98 26.56 160.458 26.464 159.892 26.464C159.327 26.464 158.804 26.56 158.324 26.752C157.855 26.944 157.439 27.2213 157.076 27.584C156.724 27.936 156.447 28.352 156.244 28.832C156.052 29.3013 155.956 29.824 155.956 30.4C155.956 30.9653 156.052 31.488 156.244 31.968C156.447 32.448 156.724 32.8693 157.076 33.232C157.428 33.584 157.844 33.856 158.324 34.048C158.804 34.24 159.327 34.336 159.892 34.336ZM168.129 36V24.8H169.841L176.865 33.424H176.017V24.8H178.081V36H176.369L169.345 27.376H170.193V36H168.129ZM179.498 36L184.538 24.8H186.586L191.642 36H189.466L185.13 25.904H185.962L181.642 36H179.498ZM181.818 33.408L182.378 31.776H188.426L188.986 33.408H181.818ZM193.067 36V24.8H195.147V34.24H201.003V36H193.067Z" fill="#004BFF"/>
<defs>
<clipPath id="clip0_23_353">
<rect width="71" height="40" fill="white"/>
</clipPath>
</defs>
</svg>
