<svg width="363" height="38" viewBox="0 0 363 38" fill="none" xmlns="http://www.w3.org/2000/svg">
<path fill-rule="evenodd" clip-rule="evenodd" d="M0.355 0C0.158939 0 0 0.16203 0 0.361905V37.6381C0 37.838 0.158939 38 0.355 38H8.26396C8.46002 38 8.61896 37.838 8.61896 37.6381V26.7584C8.61896 26.4481 8.97689 26.2817 9.20671 26.4852L21.9775 37.7899C22.113 37.9098 22.315 37.9078 22.4482 37.7852L35.802 25.489C36.0303 25.2787 36.395 25.4439 36.395 25.7575V37.6381C36.395 37.838 36.5539 38 36.75 38H53.6975C63.2534 38 71 29.4934 71 19C71 8.50658 63.2534 -7.67409e-07 53.6975 0H36.4594C36.3714 0 36.2866 0.0332818 36.2214 0.0933958L22.7063 12.5443C22.5722 12.6678 22.3685 12.669 22.2331 12.5469L8.41185 0.0907616C8.34696 0.0322798 8.26333 0 8.17672 0H0.355ZM36.2771 13.954C36.3521 13.8853 36.395 13.7874 36.395 13.6847V11.8763C36.395 11.5621 36.0292 11.3972 35.8012 11.6085L22.5537 23.8851C22.4192 24.0098 22.214 24.0107 22.0784 23.8871L9.21049 12.1657C8.98176 11.9573 8.61896 12.1229 8.61896 12.4356V14.2078C8.61896 14.312 8.66294 14.411 8.73968 14.4797L22.1325 26.4727C22.2676 26.5937 22.4701 26.5926 22.6039 26.4701L36.2771 13.954ZM45.795 17.9592C45.795 17.7066 45.9242 17.4722 46.1358 17.3409L48.7983 15.6887C49.2715 15.3951 49.8775 15.7423 49.8775 16.307V24.9714C49.8775 25.3712 49.5596 25.6952 49.1675 25.6952H46.505C46.1129 25.6952 45.795 25.3712 45.795 24.9714V17.9592ZM58.5892 15.6887C58.116 15.3951 57.51 15.7423 57.51 16.307V24.9714C57.51 25.3712 57.8279 25.6952 58.22 25.6952H60.8825C61.2746 25.6952 61.5925 25.3712 61.5925 24.9714V17.9592C61.5925 17.7066 61.4633 17.4722 61.2517 17.3409L58.5892 15.6887ZM50.2325 15.2206C50.2325 14.9813 50.3485 14.7574 50.5425 14.6226L53.0275 12.8953C53.4988 12.5677 54.1375 12.9118 54.1375 13.4934V24.9714C54.1375 25.3712 53.8196 25.6952 53.4275 25.6952H50.9425C50.5504 25.6952 50.2325 25.3712 50.2325 24.9714V15.2206ZM55.7045 13.3594C55.2573 12.9035 54.4925 13.2264 54.4925 13.8712V24.9714C54.4925 25.3712 54.8104 25.6952 55.2025 25.6952H56.445C56.8371 25.6952 57.155 25.3712 57.155 24.9714V15.1379C57.155 14.9459 57.0802 14.7618 56.947 14.6261L55.7045 13.3594Z" fill="#0069FF"/>
<path d="M84.724 25.288C83.68 25.288 82.66 25.174 81.664 24.946C80.68 24.706 79.87 24.388 79.234 23.992L80.602 20.896C81.202 21.244 81.874 21.526 82.618 21.742C83.362 21.946 84.076 22.048 84.76 22.048C85.348 22.048 85.768 21.994 86.02 21.886C86.272 21.766 86.398 21.592 86.398 21.364C86.398 21.1 86.23 20.902 85.894 20.77C85.57 20.638 85.03 20.494 84.274 20.338C83.302 20.134 82.492 19.918 81.844 19.69C81.196 19.45 80.632 19.066 80.152 18.538C79.672 17.998 79.432 17.272 79.432 16.36C79.432 15.568 79.654 14.848 80.098 14.2C80.542 13.552 81.202 13.042 82.078 12.67C82.966 12.298 84.04 12.112 85.3 12.112C86.164 12.112 87.01 12.208 87.838 12.4C88.678 12.58 89.416 12.85 90.052 13.21L88.774 16.288C87.538 15.664 86.368 15.352 85.264 15.352C84.172 15.352 83.626 15.616 83.626 16.144C83.626 16.396 83.788 16.588 84.112 16.72C84.436 16.84 84.97 16.972 85.714 17.116C86.674 17.296 87.484 17.506 88.144 17.746C88.804 17.974 89.374 18.352 89.854 18.88C90.346 19.408 90.592 20.128 90.592 21.04C90.592 21.832 90.37 22.552 89.926 23.2C89.482 23.836 88.816 24.346 87.928 24.73C87.052 25.102 85.984 25.288 84.724 25.288Z" fill="#3A3A3A"/>
<path d="M97.5981 15.604V21.796H99.4881V25H91.4601V21.796H93.3501V15.604H91.4601V12.4H99.4881V15.604H97.5981Z" fill="#3A3A3A"/>
<path d="M108.787 12.112C110.275 12.112 111.427 12.598 112.243 13.57C113.071 14.542 113.485 15.922 113.485 17.71V25H109.237V17.836C109.237 17.068 109.069 16.498 108.733 16.126C108.409 15.742 107.953 15.55 107.365 15.55C106.777 15.55 106.297 15.754 105.925 16.162C105.565 16.57 105.385 17.176 105.385 17.98V25H101.137V12.4H105.259V13.75C106.111 12.658 107.287 12.112 108.787 12.112Z" fill="#3A3A3A"/>
<path d="M115.428 12.4H121.638C123.042 12.4 124.278 12.658 125.346 13.174C126.426 13.678 127.26 14.404 127.848 15.352C128.448 16.3 128.748 17.416 128.748 18.7C128.748 19.984 128.448 21.1 127.848 22.048C127.26 22.996 126.426 23.728 125.346 24.244C124.278 24.748 123.042 25 121.638 25H115.428V12.4ZM121.458 21.688C122.37 21.688 123.096 21.43 123.636 20.914C124.188 20.386 124.464 19.648 124.464 18.7C124.464 17.752 124.188 17.02 123.636 16.504C123.096 15.976 122.37 15.712 121.458 15.712H119.676V21.688H121.458Z" fill="#3A3A3A"/>
<path d="M135.954 15.604V21.796H137.844V25H129.816V21.796H131.706V15.604H129.816V12.4H137.844V15.604H135.954Z" fill="#3A3A3A"/>
<path d="M145.921 25.288C144.589 25.288 143.389 25.012 142.321 24.46C141.253 23.896 140.413 23.116 139.801 22.12C139.201 21.112 138.901 19.972 138.901 18.7C138.901 17.428 139.201 16.294 139.801 15.298C140.413 14.29 141.253 13.51 142.321 12.958C143.389 12.394 144.589 12.112 145.921 12.112C147.145 12.112 148.237 12.328 149.197 12.76C150.157 13.192 150.949 13.816 151.573 14.632L148.891 17.026C148.111 16.042 147.193 15.55 146.137 15.55C145.249 15.55 144.535 15.838 143.995 16.414C143.455 16.978 143.185 17.74 143.185 18.7C143.185 19.66 143.455 20.428 143.995 21.004C144.535 21.568 145.249 21.85 146.137 21.85C147.193 21.85 148.111 21.358 148.891 20.374L151.573 22.768C150.949 23.584 150.157 24.208 149.197 24.64C148.237 25.072 147.145 25.288 145.921 25.288Z" fill="#3A3A3A"/>
<path d="M158.901 12.112C160.125 12.112 161.205 12.358 162.141 12.85C163.077 13.33 163.803 14.038 164.319 14.974C164.847 15.898 165.111 17.002 165.111 18.286V25H160.863V22.462H156.867V25H152.691V18.286C152.691 17.002 152.949 15.898 153.465 14.974C153.993 14.038 154.725 13.33 155.661 12.85C156.597 12.358 157.677 12.112 158.901 12.112ZM160.863 19.258V17.926C160.863 17.146 160.677 16.558 160.305 16.162C159.945 15.754 159.465 15.55 158.865 15.55C158.265 15.55 157.779 15.754 157.407 16.162C157.047 16.558 156.867 17.146 156.867 17.926V19.258H160.863ZM160.413 11.374L158.901 9.988L157.389 11.374H154.869L157.173 8.494H160.629L162.933 11.374H160.413Z" fill="#3A3A3A"/>
<path d="M174.705 12.112C176.193 12.112 177.345 12.598 178.161 13.57C178.989 14.542 179.403 15.922 179.403 17.71V25H175.155V17.836C175.155 17.068 174.987 16.498 174.651 16.126C174.327 15.742 173.871 15.55 173.283 15.55C172.695 15.55 172.215 15.754 171.843 16.162C171.483 16.57 171.303 17.176 171.303 17.98V25H167.055V12.4H171.177V13.75C172.029 12.658 173.205 12.112 174.705 12.112Z" fill="#3A3A3A"/>
<path d="M187.862 25.288C186.53 25.288 185.33 25.012 184.262 24.46C183.194 23.896 182.354 23.116 181.742 22.12C181.142 21.112 180.842 19.972 180.842 18.7C180.842 17.428 181.142 16.294 181.742 15.298C182.354 14.29 183.194 13.51 184.262 12.958C185.33 12.394 186.53 12.112 187.862 12.112C189.086 12.112 190.178 12.328 191.138 12.76C192.098 13.192 192.89 13.816 193.514 14.632L190.832 17.026C190.052 16.042 189.134 15.55 188.078 15.55C187.19 15.55 186.476 15.838 185.936 16.414C185.396 16.978 185.126 17.74 185.126 18.7C185.126 19.66 185.396 20.428 185.936 21.004C186.476 21.568 187.19 21.85 188.078 21.85C189.134 21.85 190.052 21.358 190.832 20.374L193.514 22.768C192.89 23.584 192.098 24.208 191.138 24.64C190.178 25.072 189.086 25.288 187.862 25.288Z" fill="#3A3A3A"/>
<path d="M200.483 15.604V21.796H202.373V25H194.345V21.796H196.235V15.604H194.345V12.4H202.373V15.604H200.483Z" fill="#3A3A3A"/>
<path d="M210.124 12.112C211.348 12.112 212.428 12.358 213.364 12.85C214.3 13.33 215.026 14.038 215.542 14.974C216.07 15.898 216.334 17.002 216.334 18.286V25H212.086V22.462H208.09V25H203.914V18.286C203.914 17.002 204.172 15.898 204.688 14.974C205.216 14.038 205.948 13.33 206.884 12.85C207.82 12.358 208.9 12.112 210.124 12.112ZM212.086 19.258V17.926C212.086 17.146 211.9 16.558 211.528 16.162C211.168 15.754 210.688 15.55 210.088 15.55C209.488 15.55 209.002 15.754 208.63 16.162C208.27 16.558 208.09 17.146 208.09 17.926V19.258H212.086Z" fill="#3A3A3A"/>
<path d="M224.056 12.4C225.688 12.4 226.972 12.79 227.908 13.57C228.844 14.35 229.312 15.424 229.312 16.792C229.312 18.16 228.844 19.234 227.908 20.014C226.972 20.794 225.688 21.184 224.056 21.184H220.942V25H219.142V12.4H224.056ZM224.002 19.618C225.142 19.618 226.012 19.378 226.612 18.898C227.212 18.406 227.512 17.704 227.512 16.792C227.512 15.88 227.212 15.184 226.612 14.704C226.012 14.212 225.142 13.966 224.002 13.966H220.942V19.618H224.002Z" fill="#3A3A3A"/>
<path d="M240.38 25L237.662 21.13C237.326 21.154 237.062 21.166 236.87 21.166H233.756V25H231.956V12.4H236.87C238.502 12.4 239.786 12.79 240.722 13.57C241.658 14.35 242.126 15.424 242.126 16.792C242.126 17.764 241.886 18.592 241.406 19.276C240.926 19.96 240.242 20.458 239.354 20.77L242.342 25H240.38ZM236.816 19.636C237.956 19.636 238.826 19.39 239.426 18.898C240.026 18.406 240.326 17.704 240.326 16.792C240.326 15.88 240.026 15.184 239.426 14.704C238.826 14.212 237.956 13.966 236.816 13.966H233.756V19.636H236.816Z" fill="#3A3A3A"/>
<path d="M250.723 25.144C249.451 25.144 248.305 24.868 247.285 24.316C246.265 23.752 245.461 22.978 244.873 21.994C244.297 21.01 244.009 19.912 244.009 18.7C244.009 17.488 244.297 16.39 244.873 15.406C245.461 14.422 246.265 13.654 247.285 13.102C248.305 12.538 249.451 12.256 250.723 12.256C251.983 12.256 253.123 12.538 254.143 13.102C255.163 13.654 255.961 14.422 256.537 15.406C257.113 16.378 257.401 17.476 257.401 18.7C257.401 19.924 257.113 21.028 256.537 22.012C255.961 22.984 255.163 23.752 254.143 24.316C253.123 24.868 251.983 25.144 250.723 25.144ZM250.723 23.542C251.647 23.542 252.475 23.332 253.207 22.912C253.951 22.492 254.533 21.916 254.953 21.184C255.385 20.44 255.601 19.612 255.601 18.7C255.601 17.788 255.385 16.966 254.953 16.234C254.533 15.49 253.951 14.908 253.207 14.488C252.475 14.068 251.647 13.858 250.723 13.858C249.799 13.858 248.959 14.068 248.203 14.488C247.459 14.908 246.871 15.49 246.439 16.234C246.019 16.966 245.809 17.788 245.809 18.7C245.809 19.612 246.019 20.44 246.439 21.184C246.871 21.916 247.459 22.492 248.203 22.912C248.959 23.332 249.799 23.542 250.723 23.542Z" fill="#3A3A3A"/>
<path d="M265.318 13.858C264.166 13.858 263.296 14.122 262.708 14.65C262.132 15.166 261.844 15.922 261.844 16.918V18.358H267.604V19.906H261.844V25H260.044V16.9C260.044 15.448 260.5 14.314 261.412 13.498C262.336 12.67 263.62 12.256 265.264 12.256C265.984 12.256 266.656 12.34 267.28 12.508C267.904 12.664 268.444 12.898 268.9 13.21L268.306 14.704C267.502 14.14 266.506 13.858 265.318 13.858Z" fill="#3A3A3A"/>
<path d="M274.182 13.966V23.434H276.612V25H269.952V23.434H272.382V13.966H269.952V12.4H276.612V13.966H274.182Z" fill="#3A3A3A"/>
<path d="M282.949 25.144C282.001 25.144 281.083 25 280.195 24.712C279.319 24.412 278.629 24.028 278.125 23.56L278.791 22.156C279.271 22.588 279.883 22.942 280.627 23.218C281.383 23.482 282.157 23.614 282.949 23.614C283.993 23.614 284.773 23.44 285.289 23.092C285.805 22.732 286.063 22.258 286.063 21.67C286.063 21.238 285.919 20.89 285.631 20.626C285.355 20.35 285.007 20.14 284.587 19.996C284.179 19.852 283.597 19.69 282.841 19.51C281.893 19.282 281.125 19.054 280.537 18.826C279.961 18.598 279.463 18.25 279.043 17.782C278.635 17.302 278.431 16.66 278.431 15.856C278.431 15.184 278.605 14.578 278.953 14.038C279.313 13.498 279.853 13.066 280.573 12.742C281.293 12.418 282.187 12.256 283.255 12.256C283.999 12.256 284.731 12.352 285.451 12.544C286.171 12.736 286.789 13.012 287.305 13.372L286.711 14.812C286.183 14.476 285.619 14.224 285.019 14.056C284.419 13.876 283.831 13.786 283.255 13.786C282.235 13.786 281.467 13.972 280.951 14.344C280.447 14.716 280.195 15.196 280.195 15.784C280.195 16.216 280.339 16.57 280.627 16.846C280.915 17.11 281.269 17.32 281.689 17.476C282.121 17.62 282.703 17.776 283.435 17.944C284.383 18.172 285.145 18.4 285.721 18.628C286.297 18.856 286.789 19.204 287.197 19.672C287.617 20.14 287.827 20.77 287.827 21.562C287.827 22.222 287.647 22.828 287.287 23.38C286.927 23.92 286.381 24.352 285.649 24.676C284.917 24.988 284.017 25.144 282.949 25.144Z" fill="#3A3A3A"/>
<path d="M294.128 25.144C293.18 25.144 292.262 25 291.374 24.712C290.498 24.412 289.808 24.028 289.304 23.56L289.97 22.156C290.45 22.588 291.062 22.942 291.806 23.218C292.562 23.482 293.336 23.614 294.128 23.614C295.172 23.614 295.952 23.44 296.468 23.092C296.984 22.732 297.242 22.258 297.242 21.67C297.242 21.238 297.098 20.89 296.81 20.626C296.534 20.35 296.186 20.14 295.766 19.996C295.358 19.852 294.776 19.69 294.02 19.51C293.072 19.282 292.304 19.054 291.716 18.826C291.14 18.598 290.642 18.25 290.222 17.782C289.814 17.302 289.61 16.66 289.61 15.856C289.61 15.184 289.784 14.578 290.132 14.038C290.492 13.498 291.032 13.066 291.752 12.742C292.472 12.418 293.366 12.256 294.434 12.256C295.178 12.256 295.91 12.352 296.63 12.544C297.35 12.736 297.968 13.012 298.484 13.372L297.89 14.812C297.362 14.476 296.798 14.224 296.198 14.056C295.598 13.876 295.01 13.786 294.434 13.786C293.414 13.786 292.646 13.972 292.13 14.344C291.626 14.716 291.374 15.196 291.374 15.784C291.374 16.216 291.518 16.57 291.806 16.846C292.094 17.11 292.448 17.32 292.868 17.476C293.3 17.62 293.882 17.776 294.614 17.944C295.562 18.172 296.324 18.4 296.9 18.628C297.476 18.856 297.968 19.204 298.376 19.672C298.796 20.14 299.006 20.77 299.006 21.562C299.006 22.222 298.826 22.828 298.466 23.38C298.106 23.92 297.56 24.352 296.828 24.676C296.096 24.988 295.196 25.144 294.128 25.144Z" fill="#3A3A3A"/>
<path d="M304.75 13.966V23.434H307.18V25H300.52V23.434H302.95V13.966H300.52V12.4H307.18V13.966H304.75Z" fill="#3A3A3A"/>
<path d="M315.445 25.144C314.173 25.144 313.027 24.868 312.007 24.316C310.987 23.752 310.183 22.978 309.595 21.994C309.019 21.01 308.731 19.912 308.731 18.7C308.731 17.488 309.019 16.39 309.595 15.406C310.183 14.422 310.987 13.654 312.007 13.102C313.027 12.538 314.173 12.256 315.445 12.256C316.705 12.256 317.845 12.538 318.865 13.102C319.885 13.654 320.683 14.422 321.259 15.406C321.835 16.378 322.123 17.476 322.123 18.7C322.123 19.924 321.835 21.028 321.259 22.012C320.683 22.984 319.885 23.752 318.865 24.316C317.845 24.868 316.705 25.144 315.445 25.144ZM315.445 23.542C316.369 23.542 317.197 23.332 317.929 22.912C318.673 22.492 319.255 21.916 319.675 21.184C320.107 20.44 320.323 19.612 320.323 18.7C320.323 17.788 320.107 16.966 319.675 16.234C319.255 15.49 318.673 14.908 317.929 14.488C317.197 14.068 316.369 13.858 315.445 13.858C314.521 13.858 313.681 14.068 312.925 14.488C312.181 14.908 311.593 15.49 311.161 16.234C310.741 16.966 310.531 17.788 310.531 18.7C310.531 19.612 310.741 20.44 311.161 21.184C311.593 21.916 312.181 22.492 312.925 22.912C313.681 23.332 314.521 23.542 315.445 23.542Z" fill="#3A3A3A"/>
<path d="M330.742 12.256C332.254 12.256 333.436 12.712 334.288 13.624C335.14 14.536 335.566 15.838 335.566 17.53V25H333.784V17.584C333.784 16.36 333.484 15.436 332.884 14.812C332.284 14.176 331.45 13.858 330.382 13.858C329.23 13.858 328.324 14.194 327.664 14.866C327.004 15.538 326.674 16.534 326.674 17.854V25H324.874V12.4H326.602V14.182C327.454 12.898 328.834 12.256 330.742 12.256Z" fill="#3A3A3A"/>
<path d="M344.528 12.256C346.208 12.256 347.534 12.748 348.506 13.732C349.478 14.704 349.964 16.102 349.964 17.926V25H348.164V21.526H340.892V25H339.128V17.926C339.128 16.102 339.614 14.704 340.586 13.732C341.558 12.748 342.872 12.256 344.528 12.256ZM348.164 19.96V17.764C348.164 16.48 347.84 15.508 347.192 14.848C346.556 14.188 345.668 13.858 344.528 13.858C343.388 13.858 342.494 14.188 341.846 14.848C341.21 15.508 340.892 16.48 340.892 17.764V19.96H348.164Z" fill="#3A3A3A"/>
<path d="M353.632 12.4H355.432V23.434H362.254V25H353.632V12.4Z" fill="#3A3A3A"/>
</svg>
