<svg width="160" height="118" viewBox="0 0 160 118" fill="none" xmlns="http://www.w3.org/2000/svg">
<path d="M8.60088 93.32C7.44088 93.32 6.30755 93.1933 5.20088 92.94C4.10755 92.6733 3.20755 92.32 2.50088 91.88L4.02088 88.44C4.68755 88.8267 5.43421 89.14 6.26088 89.38C7.08755 89.6067 7.88088 89.72 8.64088 89.72C9.29421 89.72 9.76088 89.66 10.0409 89.54C10.3209 89.4067 10.4609 89.2133 10.4609 88.96C10.4609 88.6667 10.2742 88.4467 9.90088 88.3C9.54088 88.1533 8.94088 87.9933 8.10088 87.82C7.02088 87.5933 6.12088 87.3533 5.40088 87.1C4.68088 86.8333 4.05421 86.4067 3.52088 85.82C2.98755 85.22 2.72088 84.4133 2.72088 83.4C2.72088 82.52 2.96755 81.72 3.46088 81C3.95421 80.28 4.68755 79.7133 5.66088 79.3C6.64755 78.8867 7.84088 78.68 9.24088 78.68C10.2009 78.68 11.1409 78.7867 12.0609 79C12.9942 79.2 13.8142 79.5 14.5209 79.9L13.1009 83.32C11.7275 82.6267 10.4275 82.28 9.20088 82.28C7.98755 82.28 7.38088 82.5733 7.38088 83.16C7.38088 83.44 7.56088 83.6533 7.92088 83.8C8.28088 83.9333 8.87422 84.08 9.70088 84.24C10.7675 84.44 11.6675 84.6733 12.4009 84.94C13.1342 85.1933 13.7675 85.6133 14.3009 86.2C14.8475 86.7867 15.1209 87.5867 15.1209 88.6C15.1209 89.48 14.8742 90.28 14.3809 91C13.8875 91.7067 13.1475 92.2733 12.1609 92.7C11.1875 93.1133 10.0009 93.32 8.60088 93.32Z" fill="white"/>
<path d="M22.9054 82.56V89.44H25.0054V93H16.0854V89.44H18.1854V82.56H16.0854V79H25.0054V82.56H22.9054Z" fill="white"/>
<path d="M35.3379 78.68C36.9912 78.68 38.2712 79.22 39.1779 80.3C40.0979 81.38 40.5579 82.9133 40.5579 84.9V93H35.8379V85.04C35.8379 84.1867 35.6512 83.5533 35.2779 83.14C34.9179 82.7133 34.4112 82.5 33.7579 82.5C33.1046 82.5 32.5712 82.7267 32.1579 83.18C31.7579 83.6333 31.5579 84.3067 31.5579 85.2V93H26.8379V79H31.4179V80.5C32.3646 79.2867 33.6712 78.68 35.3379 78.68Z" fill="white"/>
<path d="M42.7168 79H49.6168C51.1768 79 52.5502 79.2867 53.7368 79.86C54.9368 80.42 55.8635 81.2267 56.5168 82.28C57.1835 83.3333 57.5168 84.5733 57.5168 86C57.5168 87.4267 57.1835 88.6667 56.5168 89.72C55.8635 90.7733 54.9368 91.5867 53.7368 92.16C52.5502 92.72 51.1768 93 49.6168 93H42.7168V79ZM49.4168 89.32C50.4302 89.32 51.2368 89.0333 51.8368 88.46C52.4502 87.8733 52.7568 87.0533 52.7568 86C52.7568 84.9467 52.4502 84.1333 51.8368 83.56C51.2368 82.9733 50.4302 82.68 49.4168 82.68H47.4368V89.32H49.4168Z" fill="white"/>
<path d="M65.5226 82.56V89.44H67.6226V93H58.7026V89.44H60.8026V82.56H58.7026V79H67.6226V82.56H65.5226Z" fill="white"/>
<path d="M76.5974 93.32C75.1174 93.32 73.7841 93.0133 72.5974 92.4C71.4108 91.7733 70.4774 90.9067 69.7974 89.8C69.1308 88.68 68.7974 87.4133 68.7974 86C68.7974 84.5867 69.1308 83.3267 69.7974 82.22C70.4774 81.1 71.4108 80.2333 72.5974 79.62C73.7841 78.9933 75.1174 78.68 76.5974 78.68C77.9574 78.68 79.1708 78.92 80.2374 79.4C81.3041 79.88 82.1841 80.5733 82.8774 81.48L79.8974 84.14C79.0308 83.0467 78.0108 82.5 76.8374 82.5C75.8508 82.5 75.0574 82.82 74.4574 83.46C73.8574 84.0867 73.5574 84.9333 73.5574 86C73.5574 87.0667 73.8574 87.92 74.4574 88.56C75.0574 89.1867 75.8508 89.5 76.8374 89.5C78.0108 89.5 79.0308 88.9533 79.8974 87.86L82.8774 90.52C82.1841 91.4267 81.3041 92.12 80.2374 92.6C79.1708 93.08 77.9574 93.32 76.5974 93.32Z" fill="white"/>
<path d="M91.0203 78.68C92.3803 78.68 93.5803 78.9533 94.6203 79.5C95.6603 80.0333 96.4669 80.82 97.0403 81.86C97.6269 82.8867 97.9203 84.1133 97.9203 85.54V93H93.2003V90.18H88.7603V93H84.1203V85.54C84.1203 84.1133 84.4069 82.8867 84.9803 81.86C85.5669 80.82 86.3803 80.0333 87.4203 79.5C88.4603 78.9533 89.6603 78.68 91.0203 78.68ZM93.2003 86.62V85.14C93.2003 84.2733 92.9936 83.62 92.5803 83.18C92.1803 82.7267 91.6469 82.5 90.9803 82.5C90.3136 82.5 89.7736 82.7267 89.3603 83.18C88.9603 83.62 88.7603 84.2733 88.7603 85.14V86.62H93.2003ZM92.7003 77.86L91.0203 76.32L89.3403 77.86H86.5403L89.1003 74.66H92.9403L95.5003 77.86H92.7003Z" fill="white"/>
<path d="M108.58 78.68C110.233 78.68 111.513 79.22 112.42 80.3C113.34 81.38 113.8 82.9133 113.8 84.9V93H109.08V85.04C109.08 84.1867 108.893 83.5533 108.52 83.14C108.16 82.7133 107.653 82.5 107 82.5C106.347 82.5 105.813 82.7267 105.4 83.18C105 83.6333 104.8 84.3067 104.8 85.2V93H100.08V79H104.66V80.5C105.607 79.2867 106.913 78.68 108.58 78.68Z" fill="white"/>
<path d="M123.199 93.32C121.719 93.32 120.386 93.0133 119.199 92.4C118.012 91.7733 117.079 90.9067 116.399 89.8C115.732 88.68 115.399 87.4133 115.399 86C115.399 84.5867 115.732 83.3267 116.399 82.22C117.079 81.1 118.012 80.2333 119.199 79.62C120.386 78.9933 121.719 78.68 123.199 78.68C124.559 78.68 125.772 78.92 126.839 79.4C127.906 79.88 128.786 80.5733 129.479 81.48L126.499 84.14C125.632 83.0467 124.612 82.5 123.439 82.5C122.452 82.5 121.659 82.82 121.059 83.46C120.459 84.0867 120.159 84.9333 120.159 86C120.159 87.0667 120.459 87.92 121.059 88.56C121.659 89.1867 122.452 89.5 123.439 89.5C124.612 89.5 125.632 88.9533 126.499 87.86L129.479 90.52C128.786 91.4267 127.906 92.12 126.839 92.6C125.772 93.08 124.559 93.32 123.199 93.32Z" fill="white"/>
<path d="M137.222 82.56V89.44H139.322V93H130.402V89.44H132.502V82.56H130.402V79H139.322V82.56H137.222Z" fill="white"/>
<path d="M147.934 78.68C149.294 78.68 150.494 78.9533 151.534 79.5C152.574 80.0333 153.381 80.82 153.954 81.86C154.541 82.8867 154.834 84.1133 154.834 85.54V93H150.114V90.18H145.674V93H141.034V85.54C141.034 84.1133 141.321 82.8867 141.894 81.86C142.481 80.82 143.294 80.0333 144.334 79.5C145.374 78.9533 146.574 78.68 147.934 78.68ZM150.114 86.62V85.14C150.114 84.2733 149.908 83.62 149.494 83.18C149.094 82.7267 148.561 82.5 147.894 82.5C147.228 82.5 146.688 82.7267 146.274 83.18C145.874 83.62 145.674 84.2733 145.674 85.14V86.62H150.114Z" fill="white"/>
<path d="M5.95323 103C7.76656 103 9.19322 103.433 10.2332 104.3C11.2732 105.167 11.7932 106.36 11.7932 107.88C11.7932 109.4 11.2732 110.593 10.2332 111.46C9.19322 112.327 7.76656 112.76 5.95323 112.76H2.49323V117H0.493225V103H5.95323ZM5.89323 111.02C7.15989 111.02 8.12656 110.753 8.79323 110.22C9.45989 109.673 9.79323 108.893 9.79323 107.88C9.79323 106.867 9.45989 106.093 8.79323 105.56C8.12656 105.013 7.15989 104.74 5.89323 104.74H2.49323V111.02H5.89323Z" fill="white"/>
<path d="M24.0915 117L21.0715 112.7C20.6982 112.727 20.4048 112.74 20.1915 112.74H16.7315V117H14.7315V103H20.1915C22.0048 103 23.4315 103.433 24.4715 104.3C25.5115 105.167 26.0315 106.36 26.0315 107.88C26.0315 108.96 25.7648 109.88 25.2315 110.64C24.6982 111.4 23.9382 111.953 22.9515 112.3L26.2715 117H24.0915ZM20.1315 111.04C21.3982 111.04 22.3648 110.767 23.0315 110.22C23.6982 109.673 24.0315 108.893 24.0315 107.88C24.0315 106.867 23.6982 106.093 23.0315 105.56C22.3648 105.013 21.3982 104.74 20.1315 104.74H16.7315V111.04H20.1315Z" fill="white"/>
<path d="M35.5828 117.16C34.1694 117.16 32.8961 116.853 31.7628 116.24C30.6294 115.613 29.7361 114.753 29.0828 113.66C28.4428 112.567 28.1228 111.347 28.1228 110C28.1228 108.653 28.4428 107.433 29.0828 106.34C29.7361 105.247 30.6294 104.393 31.7628 103.78C32.8961 103.153 34.1694 102.84 35.5828 102.84C36.9828 102.84 38.2494 103.153 39.3828 103.78C40.5161 104.393 41.4028 105.247 42.0428 106.34C42.6828 107.42 43.0028 108.64 43.0028 110C43.0028 111.36 42.6828 112.587 42.0428 113.68C41.4028 114.76 40.5161 115.613 39.3828 116.24C38.2494 116.853 36.9828 117.16 35.5828 117.16ZM35.5828 115.38C36.6094 115.38 37.5294 115.147 38.3428 114.68C39.1694 114.213 39.8161 113.573 40.2828 112.76C40.7628 111.933 41.0028 111.013 41.0028 110C41.0028 108.987 40.7628 108.073 40.2828 107.26C39.8161 106.433 39.1694 105.787 38.3428 105.32C37.5294 104.853 36.6094 104.62 35.5828 104.62C34.5561 104.62 33.6228 104.853 32.7828 105.32C31.9561 105.787 31.3028 106.433 30.8228 107.26C30.3561 108.073 30.1228 108.987 30.1228 110C30.1228 111.013 30.3561 111.933 30.8228 112.76C31.3028 113.573 31.9561 114.213 32.7828 114.68C33.6228 115.147 34.5561 115.38 35.5828 115.38Z" fill="white"/>
<path d="M51.7996 104.62C50.5196 104.62 49.553 104.913 48.8996 105.5C48.2596 106.073 47.9396 106.913 47.9396 108.02V109.62H54.3396V111.34H47.9396V117H45.9396V108C45.9396 106.387 46.4463 105.127 47.4596 104.22C48.4863 103.3 49.913 102.84 51.7396 102.84C52.5396 102.84 53.2863 102.933 53.9796 103.12C54.673 103.293 55.273 103.553 55.7796 103.9L55.1196 105.56C54.2263 104.933 53.1196 104.62 51.7996 104.62Z" fill="white"/>
<path d="M61.6485 104.74V115.26H64.3485V117H56.9485V115.26H59.6485V104.74H56.9485V103H64.3485V104.74H61.6485Z" fill="white"/>
<path d="M71.3896 117.16C70.3363 117.16 69.3163 117 68.3296 116.68C67.3563 116.347 66.5896 115.92 66.0296 115.4L66.7696 113.84C67.303 114.32 67.983 114.713 68.8096 115.02C69.6496 115.313 70.5096 115.46 71.3896 115.46C72.5496 115.46 73.4163 115.267 73.9896 114.88C74.563 114.48 74.8496 113.953 74.8496 113.3C74.8496 112.82 74.6896 112.433 74.3696 112.14C74.063 111.833 73.6763 111.6 73.2096 111.44C72.7563 111.28 72.1096 111.1 71.2696 110.9C70.2163 110.647 69.363 110.393 68.7096 110.14C68.0696 109.887 67.5163 109.5 67.0496 108.98C66.5963 108.447 66.3696 107.733 66.3696 106.84C66.3696 106.093 66.563 105.42 66.9496 104.82C67.3496 104.22 67.9496 103.74 68.7496 103.38C69.5496 103.02 70.543 102.84 71.7296 102.84C72.5563 102.84 73.3696 102.947 74.1696 103.16C74.9696 103.373 75.6563 103.68 76.2296 104.08L75.5696 105.68C74.983 105.307 74.3563 105.027 73.6896 104.84C73.023 104.64 72.3696 104.54 71.7296 104.54C70.5963 104.54 69.743 104.747 69.1696 105.16C68.6096 105.573 68.3296 106.107 68.3296 106.76C68.3296 107.24 68.4896 107.633 68.8096 107.94C69.1296 108.233 69.523 108.467 69.9896 108.64C70.4696 108.8 71.1163 108.973 71.9296 109.16C72.983 109.413 73.8296 109.667 74.4696 109.92C75.1096 110.173 75.6563 110.56 76.1096 111.08C76.5763 111.6 76.8096 112.3 76.8096 113.18C76.8096 113.913 76.6096 114.587 76.2096 115.2C75.8096 115.8 75.203 116.28 74.3896 116.64C73.5763 116.987 72.5763 117.16 71.3896 117.16Z" fill="white"/>
<path d="M83.8115 117.16C82.7582 117.16 81.7382 117 80.7515 116.68C79.7782 116.347 79.0115 115.92 78.4515 115.4L79.1915 113.84C79.7248 114.32 80.4048 114.713 81.2315 115.02C82.0715 115.313 82.9315 115.46 83.8115 115.46C84.9715 115.46 85.8382 115.267 86.4115 114.88C86.9848 114.48 87.2715 113.953 87.2715 113.3C87.2715 112.82 87.1115 112.433 86.7915 112.14C86.4848 111.833 86.0982 111.6 85.6315 111.44C85.1782 111.28 84.5315 111.1 83.6915 110.9C82.6382 110.647 81.7848 110.393 81.1315 110.14C80.4915 109.887 79.9382 109.5 79.4715 108.98C79.0182 108.447 78.7915 107.733 78.7915 106.84C78.7915 106.093 78.9848 105.42 79.3715 104.82C79.7715 104.22 80.3715 103.74 81.1715 103.38C81.9715 103.02 82.9648 102.84 84.1515 102.84C84.9782 102.84 85.7915 102.947 86.5915 103.16C87.3915 103.373 88.0782 103.68 88.6515 104.08L87.9915 105.68C87.4048 105.307 86.7782 105.027 86.1115 104.84C85.4448 104.64 84.7915 104.54 84.1515 104.54C83.0182 104.54 82.1648 104.747 81.5915 105.16C81.0315 105.573 80.7515 106.107 80.7515 106.76C80.7515 107.24 80.9115 107.633 81.2315 107.94C81.5515 108.233 81.9448 108.467 82.4115 108.64C82.8915 108.8 83.5382 108.973 84.3515 109.16C85.4048 109.413 86.2515 109.667 86.8915 109.92C87.5315 110.173 88.0782 110.56 88.5315 111.08C88.9982 111.6 89.2315 112.3 89.2315 113.18C89.2315 113.913 89.0315 114.587 88.6315 115.2C88.2315 115.8 87.6248 116.28 86.8115 116.64C85.9982 116.987 84.9982 117.16 83.8115 117.16Z" fill="white"/>
<path d="M95.6134 104.74V115.26H98.3134V117H90.9134V115.26H93.6134V104.74H90.9134V103H98.3134V104.74H95.6134Z" fill="white"/>
<path d="M107.497 117.16C106.083 117.16 104.81 116.853 103.677 116.24C102.543 115.613 101.65 114.753 100.997 113.66C100.357 112.567 100.037 111.347 100.037 110C100.037 108.653 100.357 107.433 100.997 106.34C101.65 105.247 102.543 104.393 103.677 103.78C104.81 103.153 106.083 102.84 107.497 102.84C108.897 102.84 110.163 103.153 111.297 103.78C112.43 104.393 113.317 105.247 113.957 106.34C114.597 107.42 114.917 108.64 114.917 110C114.917 111.36 114.597 112.587 113.957 113.68C113.317 114.76 112.43 115.613 111.297 116.24C110.163 116.853 108.897 117.16 107.497 117.16ZM107.497 115.38C108.523 115.38 109.443 115.147 110.257 114.68C111.083 114.213 111.73 113.573 112.197 112.76C112.677 111.933 112.917 111.013 112.917 110C112.917 108.987 112.677 108.073 112.197 107.26C111.73 106.433 111.083 105.787 110.257 105.32C109.443 104.853 108.523 104.62 107.497 104.62C106.47 104.62 105.537 104.853 104.697 105.32C103.87 105.787 103.217 106.433 102.737 107.26C102.27 108.073 102.037 108.987 102.037 110C102.037 111.013 102.27 111.933 102.737 112.76C103.217 113.573 103.87 114.213 104.697 114.68C105.537 115.147 106.47 115.38 107.497 115.38Z" fill="white"/>
<path d="M124.494 102.84C126.174 102.84 127.487 103.347 128.434 104.36C129.38 105.373 129.854 106.82 129.854 108.7V117H127.874V108.76C127.874 107.4 127.54 106.373 126.874 105.68C126.207 104.973 125.28 104.62 124.094 104.62C122.814 104.62 121.807 104.993 121.074 105.74C120.34 106.487 119.974 107.593 119.974 109.06V117H117.974V103H119.894V104.98C120.84 103.553 122.374 102.84 124.494 102.84Z" fill="white"/>
<path d="M139.811 102.84C141.677 102.84 143.151 103.387 144.231 104.48C145.311 105.56 145.851 107.113 145.851 109.14V117H143.851V113.14H135.771V117H133.811V109.14C133.811 107.113 134.351 105.56 135.431 104.48C136.511 103.387 137.971 102.84 139.811 102.84ZM143.851 111.4V108.96C143.851 107.533 143.491 106.453 142.771 105.72C142.064 104.987 141.077 104.62 139.811 104.62C138.544 104.62 137.551 104.987 136.831 105.72C136.124 106.453 135.771 107.533 135.771 108.96V111.4H143.851Z" fill="white"/>
<path d="M149.927 103H151.927V115.26H159.507V117H149.927V103Z" fill="white"/>
<path fill-rule="evenodd" clip-rule="evenodd" d="M18.6625 0C18.3229 0 18.0475 0.272893 18.0475 0.609524V63.3905C18.0475 63.7271 18.3229 64 18.6625 64H32.364C32.7036 64 32.979 63.7271 32.979 63.3905V45.0668C32.979 44.5442 33.599 44.2639 33.9972 44.6066L56.1211 63.6461C56.3559 63.8481 56.7059 63.8447 56.9366 63.6382L80.0707 42.9288C80.4662 42.5747 81.0979 42.8529 81.0979 43.3811V63.3905C81.0979 63.7271 81.3733 64 81.713 64L111.073 64C127.627 64 141.048 49.6731 141.048 32C141.047 14.3269 127.627 -1.29248e-06 111.073 0H81.2096C81.0572 0 80.9103 0.0560536 80.7972 0.157298L57.3837 21.1273C57.1515 21.3353 56.7986 21.3372 56.5641 21.1317L32.6202 0.152862C32.5077 0.054366 32.3629 0 32.2128 0H18.6625ZM80.8938 23.5014C81.0237 23.3858 81.0979 23.2209 81.0979 23.0479V20.0022C81.0979 19.473 80.4643 19.1952 80.0693 19.5512L57.1194 40.2275C56.8863 40.4375 56.5308 40.439 56.296 40.231L34.0037 20.4896C33.6075 20.1387 32.979 20.4174 32.979 20.9441V23.929C32.979 24.1043 33.0552 24.2712 33.1881 24.3869L56.3897 44.5857C56.6238 44.7895 56.9747 44.7876 57.2065 44.5813L80.8938 23.5014ZM97.3825 30.247C97.3825 29.8216 97.6063 29.4269 97.973 29.2057L102.585 26.4231C103.405 25.9286 104.455 26.5134 104.455 27.4644V42.0571C104.455 42.7304 103.904 43.2762 103.225 43.2762H98.6125C97.9332 43.2762 97.3825 42.7304 97.3825 42.0571V30.247ZM119.547 26.4231C118.727 25.9286 117.678 26.5134 117.678 27.4644V42.0571C117.678 42.7304 118.228 43.2762 118.908 43.2762H123.52C124.199 43.2762 124.75 42.7304 124.75 42.0571V30.247C124.75 29.8216 124.526 29.4269 124.16 29.2057L119.547 26.4231ZM105.07 25.6347C105.07 25.2316 105.271 24.8546 105.607 24.6275L109.912 21.7184C110.729 21.1667 111.835 21.7462 111.835 22.7257V42.0571C111.835 42.7304 111.284 43.2762 110.605 43.2762H106.3C105.621 43.2762 105.07 42.7304 105.07 42.0571V25.6347ZM114.55 22.5001C113.775 21.7321 112.45 22.276 112.45 23.3621V42.0571C112.45 42.7304 113.001 43.2762 113.68 43.2762H115.833C116.512 43.2762 117.063 42.7304 117.063 42.0571V25.4954C117.063 25.1721 116.933 24.862 116.702 24.6334L114.55 22.5001Z" fill="white"/>
</svg>
