<svg width="184" height="117" viewBox="0 0 184 117" fill="none" xmlns="http://www.w3.org/2000/svg">
<g clip-path="url(#clip0_23_191)">
<mask id="mask0_23_191" style="mask-type:luminance" maskUnits="userSpaceOnUse" x="92" y="0" width="62" height="69">
<path d="M153.439 0H92.3713V68.9619H153.439V0Z" fill="white"/>
</mask>
<g mask="url(#mask0_23_191)">
<path fill-rule="evenodd" clip-rule="evenodd" d="M92.3713 68.9619H115.874C123.374 68.9619 129.902 67.4842 135.461 64.5286C141.018 61.5074 145.337 57.4355 148.417 52.3125C151.564 47.1239 153.138 41.1801 153.138 34.481C153.138 27.7818 151.564 21.8708 148.417 16.7479C145.337 11.5593 141.018 7.4873 135.461 4.53179C129.902 1.51059 123.374 0 115.874 0H92.3713V3.05403H115.673C122.571 3.05403 128.563 4.40045 133.653 7.09323C138.808 9.78604 142.759 13.4969 145.504 18.2257C148.316 22.9545 149.722 28.3729 149.722 34.481C149.722 40.589 148.316 46.0075 145.504 50.7363C142.759 55.4651 138.808 59.1761 133.653 61.8687C128.563 64.5614 122.571 65.9079 115.673 65.9079H92.3713V68.9619Z" fill="white"/>
</g>
<mask id="mask1_23_191" style="mask-type:luminance" maskUnits="userSpaceOnUse" x="30" y="7" width="61" height="56">
<path d="M90.3624 7.09326H30.5V62.2628H90.3624V7.09326Z" fill="white"/>
</mask>
<g mask="url(#mask1_23_191)">
<path d="M30.5 62.2628V7.09326H37.0889L62.3195 48.7857H58.784L83.6932 7.09326H90.2821L90.3624 62.2628H82.6487L82.5683 18.9942H84.4164L62.2392 55.5637H58.543L36.205 18.9942H38.2138V62.2628H30.5Z" fill="white"/>
</g>
<mask id="mask2_23_191" style="mask-type:luminance" maskUnits="userSpaceOnUse" x="92" y="7" width="55" height="56">
<path d="M146.609 7.09326H92.3713V62.2628H146.609V7.09326Z" fill="white"/>
</mask>
<g mask="url(#mask2_23_191)">
<path d="M92.3713 62.2628V7.09326H116.075C122.075 7.09326 127.351 8.2492 131.905 10.5611C136.512 12.873 140.074 16.1043 142.591 20.2551C145.163 24.406 146.448 29.2137 146.448 34.678C146.448 40.1424 145.163 44.9501 142.591 49.101C140.074 53.2517 136.512 56.4831 131.905 58.795C127.351 61.107 122.075 62.2628 116.075 62.2628H92.3713ZM100.407 55.406H115.593C120.254 55.406 124.271 54.5391 127.646 52.8052C131.074 51.0713 133.726 48.6545 135.601 45.5544C137.476 42.4018 138.413 38.7763 138.413 34.678C138.413 30.5272 137.476 26.9018 135.601 23.8017C133.726 20.7017 131.074 18.2848 127.646 16.5509C124.271 14.817 120.254 13.9501 115.593 13.9501H100.407V55.406Z" fill="white"/>
</g>
</g>
<path d="M16.2542 88.16C15.1876 88.16 14.1676 88 13.1942 87.68C12.2209 87.3467 11.4542 86.92 10.8942 86.4L11.6342 84.84C12.1676 85.3067 12.8476 85.6933 13.6742 86C14.5009 86.3067 15.3609 86.46 16.2542 86.46C17.0676 86.46 17.7276 86.3667 18.2342 86.18C18.7409 85.9933 19.1142 85.74 19.3542 85.42C19.5942 85.0867 19.7142 84.7133 19.7142 84.3C19.7142 83.82 19.5542 83.4333 19.2342 83.14C18.9276 82.8467 18.5209 82.6133 18.0142 82.44C17.5209 82.2533 16.9742 82.0933 16.3742 81.96C15.7742 81.8267 15.1676 81.6733 14.5542 81.5C13.9542 81.3133 13.4009 81.08 12.8942 80.8C12.4009 80.52 12.0009 80.1467 11.6942 79.68C11.3876 79.2 11.2342 78.5867 11.2342 77.84C11.2342 77.12 11.4209 76.46 11.7942 75.86C12.1809 75.2467 12.7676 74.76 13.5542 74.4C14.3542 74.0267 15.3676 73.84 16.5942 73.84C17.4076 73.84 18.2142 73.9467 19.0142 74.16C19.8142 74.3733 20.5076 74.68 21.0942 75.08L20.4342 76.68C19.8342 76.28 19.2009 75.9933 18.5342 75.82C17.8676 75.6333 17.2209 75.54 16.5942 75.54C15.8076 75.54 15.1609 75.64 14.6542 75.84C14.1476 76.04 13.7742 76.3067 13.5342 76.64C13.3076 76.9733 13.1942 77.3467 13.1942 77.76C13.1942 78.2533 13.3476 78.6467 13.6542 78.94C13.9742 79.2333 14.3809 79.4667 14.8742 79.64C15.3809 79.8133 15.9342 79.9733 16.5342 80.12C17.1342 80.2533 17.7342 80.4067 18.3342 80.58C18.9476 80.7533 19.5009 80.98 19.9942 81.26C20.5009 81.54 20.9076 81.9133 21.2142 82.38C21.5209 82.8467 21.6742 83.4467 21.6742 84.18C21.6742 84.8867 21.4809 85.5467 21.0942 86.16C20.7076 86.76 20.1076 87.2467 19.2942 87.62C18.4942 87.98 17.4809 88.16 16.2542 88.16ZM27.1961 88V74H29.1961V88H27.1961ZM35.9875 88V74H37.6275L46.8875 85.5H46.0275V74H48.0275V88H46.3875L37.1275 76.5H37.9875V88H35.9875ZM54.818 88V74H60.718C62.2113 74 63.5246 74.2933 64.658 74.88C65.8046 75.4667 66.6913 76.2867 67.318 77.34C67.958 78.3933 68.278 79.6133 68.278 81C68.278 82.3867 67.958 83.6067 67.318 84.66C66.6913 85.7133 65.8046 86.5333 64.658 87.12C63.5246 87.7067 62.2113 88 60.718 88H54.818ZM56.818 86.26H60.598C61.758 86.26 62.758 86.04 63.598 85.6C64.4513 85.16 65.1113 84.5467 65.578 83.76C66.0446 82.96 66.278 82.04 66.278 81C66.278 79.9467 66.0446 79.0267 65.578 78.24C65.1113 77.4533 64.4513 76.84 63.598 76.4C62.758 75.96 61.758 75.74 60.598 75.74H56.818V86.26ZM73.9414 88V74H75.9414V88H73.9414ZM88.9928 88.16C87.9261 88.16 86.9395 87.9867 86.0328 87.64C85.1395 87.28 84.3595 86.78 83.6928 86.14C83.0395 85.4867 82.5261 84.7267 82.1528 83.86C81.7795 82.9933 81.5928 82.04 81.5928 81C81.5928 79.96 81.7795 79.0067 82.1528 78.14C82.5261 77.2733 83.0461 76.52 83.7128 75.88C84.3795 75.2267 85.1595 74.7267 86.0528 74.38C86.9595 74.02 87.9461 73.84 89.0128 73.84C90.0928 73.84 91.0861 74.0267 91.9928 74.4C92.9128 74.76 93.6928 75.3 94.3328 76.02L93.0328 77.28C92.4995 76.72 91.8995 76.3067 91.2328 76.04C90.5661 75.76 89.8528 75.62 89.0928 75.62C88.3061 75.62 87.5728 75.7533 86.8928 76.02C86.2261 76.2867 85.6461 76.66 85.1528 77.14C84.6595 77.62 84.2728 78.1933 83.9928 78.86C83.7261 79.5133 83.5928 80.2267 83.5928 81C83.5928 81.7733 83.7261 82.4933 83.9928 83.16C84.2728 83.8133 84.6595 84.38 85.1528 84.86C85.6461 85.34 86.2261 85.7133 86.8928 85.98C87.5728 86.2467 88.3061 86.38 89.0928 86.38C89.8528 86.38 90.5661 86.2467 91.2328 85.98C91.8995 85.7 92.4995 85.2733 93.0328 84.7L94.3328 85.96C93.6928 86.68 92.9128 87.2267 91.9928 87.6C91.0861 87.9733 90.0861 88.16 88.9928 88.16ZM97.3339 88L103.674 74H105.654L112.014 88H109.914L104.254 75.12H105.054L99.3939 88H97.3339ZM100.034 84.5L100.574 82.9H108.454L109.034 84.5H100.034ZM101.094 72.86L103.754 70.26H105.594L108.254 72.86H106.514L103.874 70.66H105.474L102.834 72.86H101.094ZM116.702 88V74H118.342L127.602 85.5H126.742V74H128.742V88H127.102L117.842 76.5H118.702V88H116.702ZM141.793 88.16C140.726 88.16 139.739 87.9867 138.833 87.64C137.939 87.28 137.159 86.78 136.493 86.14C135.839 85.4867 135.326 84.7267 134.953 83.86C134.579 82.9933 134.393 82.04 134.393 81C134.393 79.96 134.579 79.0067 134.953 78.14C135.326 77.2733 135.846 76.52 136.513 75.88C137.179 75.2267 137.959 74.7267 138.853 74.38C139.759 74.02 140.746 73.84 141.813 73.84C142.893 73.84 143.886 74.0267 144.793 74.4C145.713 74.76 146.493 75.3 147.133 76.02L145.833 77.28C145.299 76.72 144.699 76.3067 144.033 76.04C143.366 75.76 142.653 75.62 141.893 75.62C141.106 75.62 140.373 75.7533 139.693 76.02C139.026 76.2867 138.446 76.66 137.953 77.14C137.459 77.62 137.073 78.1933 136.793 78.86C136.526 79.5133 136.393 80.2267 136.393 81C136.393 81.7733 136.526 82.4933 136.793 83.16C137.073 83.8133 137.459 84.38 137.953 84.86C138.446 85.34 139.026 85.7133 139.693 85.98C140.373 86.2467 141.106 86.38 141.893 86.38C142.653 86.38 143.366 86.2467 144.033 85.98C144.699 85.7 145.299 85.2733 145.833 84.7L147.133 85.96C146.493 86.68 145.713 87.2267 144.793 87.6C143.886 87.9733 142.886 88.16 141.793 88.16ZM152.586 88V74H154.586V88H152.586ZM159.257 88L165.597 74H167.577L173.937 88H171.837L166.177 75.12H166.977L161.317 88H159.257ZM161.957 84.5L162.497 82.9H170.377L170.957 84.5H161.957ZM2.28047 112V98H7.74047C8.96713 98 10.0138 98.1933 10.8805 98.58C11.7471 98.9667 12.4138 99.5267 12.8805 100.26C13.3471 100.993 13.5805 101.867 13.5805 102.88C13.5805 103.893 13.3471 104.767 12.8805 105.5C12.4138 106.22 11.7471 106.78 10.8805 107.18C10.0138 107.567 8.96713 107.76 7.74047 107.76H3.38047L4.28047 106.82V112H2.28047ZM4.28047 107.02L3.38047 106.02H7.68047C8.96047 106.02 9.92713 105.747 10.5805 105.2C11.2471 104.653 11.5805 103.88 11.5805 102.88C11.5805 101.88 11.2471 101.107 10.5805 100.56C9.92713 100.013 8.96047 99.74 7.68047 99.74H3.38047L4.28047 98.74V107.02ZM19.1187 112V98H24.5787C25.8054 98 26.8521 98.1933 27.7187 98.58C28.5854 98.9667 29.2521 99.5267 29.7187 100.26C30.1854 100.993 30.4187 101.867 30.4187 102.88C30.4187 103.893 30.1854 104.767 29.7187 105.5C29.2521 106.22 28.5854 106.773 27.7187 107.16C26.8521 107.547 25.8054 107.74 24.5787 107.74H20.2187L21.1187 106.82V112H19.1187ZM28.4787 112L24.9187 106.92H27.0587L30.6587 112H28.4787ZM21.1187 107.02L20.2187 106.04H24.5187C25.7987 106.04 26.7654 105.767 27.4187 105.22C28.0854 104.66 28.4187 103.88 28.4187 102.88C28.4187 101.88 28.0854 101.107 27.4187 100.56C26.7654 100.013 25.7987 99.74 24.5187 99.74H20.2187L21.1187 98.74V107.02ZM42.57 112.16C41.5033 112.16 40.51 111.98 39.59 111.62C38.6833 111.26 37.8967 110.76 37.23 110.12C36.5633 109.467 36.0433 108.707 35.67 107.84C35.2967 106.973 35.11 106.027 35.11 105C35.11 103.973 35.2967 103.027 35.67 102.16C36.0433 101.293 36.5633 100.54 37.23 99.9C37.8967 99.2467 38.6833 98.74 39.59 98.38C40.4967 98.02 41.49 97.84 42.57 97.84C43.6367 97.84 44.6167 98.02 45.51 98.38C46.4167 98.7267 47.2033 99.2267 47.87 99.88C48.55 100.52 49.07 101.273 49.43 102.14C49.8033 103.007 49.99 103.96 49.99 105C49.99 106.04 49.8033 106.993 49.43 107.86C49.07 108.727 48.55 109.487 47.87 110.14C47.2033 110.78 46.4167 111.28 45.51 111.64C44.6167 111.987 43.6367 112.16 42.57 112.16ZM42.57 110.38C43.3433 110.38 44.0567 110.247 44.71 109.98C45.3767 109.713 45.95 109.34 46.43 108.86C46.9233 108.367 47.3033 107.793 47.57 107.14C47.85 106.487 47.99 105.773 47.99 105C47.99 104.227 47.85 103.513 47.57 102.86C47.3033 102.207 46.9233 101.64 46.43 101.16C45.95 100.667 45.3767 100.287 44.71 100.02C44.0567 99.7533 43.3433 99.62 42.57 99.62C41.7833 99.62 41.0567 99.7533 40.39 100.02C39.7367 100.287 39.1633 100.667 38.67 101.16C38.1767 101.64 37.79 102.207 37.51 102.86C37.2433 103.513 37.11 104.227 37.11 105C37.11 105.773 37.2433 106.487 37.51 107.14C37.79 107.793 38.1767 108.367 38.67 108.86C39.1633 109.34 39.7367 109.713 40.39 109.98C41.0567 110.247 41.7833 110.38 42.57 110.38ZM57.4469 104.62H64.6669V106.34H57.4469V104.62ZM57.6469 112H55.6469V98H65.5269V99.74H57.6469V112ZM70.9422 112V98H72.9422V112H70.9422ZM83.8136 112.16C82.7469 112.16 81.7269 112 80.7536 111.68C79.7803 111.347 79.0136 110.92 78.4536 110.4L79.1936 108.84C79.7269 109.307 80.4069 109.693 81.2336 110C82.0603 110.307 82.9203 110.46 83.8136 110.46C84.6269 110.46 85.2869 110.367 85.7936 110.18C86.3003 109.993 86.6736 109.74 86.9136 109.42C87.1536 109.087 87.2736 108.713 87.2736 108.3C87.2736 107.82 87.1136 107.433 86.7936 107.14C86.4869 106.847 86.0803 106.613 85.5736 106.44C85.0803 106.253 84.5336 106.093 83.9336 105.96C83.3336 105.827 82.7269 105.673 82.1136 105.5C81.5136 105.313 80.9603 105.08 80.4536 104.8C79.9603 104.52 79.5603 104.147 79.2536 103.68C78.9469 103.2 78.7936 102.587 78.7936 101.84C78.7936 101.12 78.9803 100.46 79.3536 99.86C79.7403 99.2467 80.3269 98.76 81.1136 98.4C81.9136 98.0267 82.9269 97.84 84.1536 97.84C84.9669 97.84 85.7736 97.9467 86.5736 98.16C87.3736 98.3733 88.0669 98.68 88.6536 99.08L87.9936 100.68C87.3936 100.28 86.7603 99.9933 86.0936 99.82C85.4269 99.6333 84.7803 99.54 84.1536 99.54C83.3669 99.54 82.7203 99.64 82.2136 99.84C81.7069 100.04 81.3336 100.307 81.0936 100.64C80.8669 100.973 80.7536 101.347 80.7536 101.76C80.7536 102.253 80.9069 102.647 81.2136 102.94C81.5336 103.233 81.9403 103.467 82.4336 103.64C82.9403 103.813 83.4936 103.973 84.0936 104.12C84.6936 104.253 85.2936 104.407 85.8936 104.58C86.5069 104.753 87.0603 104.98 87.5536 105.26C88.0603 105.54 88.4669 105.913 88.7736 106.38C89.0803 106.847 89.2336 107.447 89.2336 108.18C89.2336 108.887 89.0403 109.547 88.6536 110.16C88.2669 110.76 87.6669 111.247 86.8536 111.62C86.0536 111.98 85.0403 112.16 83.8136 112.16ZM98.8355 112.16C97.7688 112.16 96.7488 112 95.7755 111.68C94.8021 111.347 94.0355 110.92 93.4755 110.4L94.2155 108.84C94.7488 109.307 95.4288 109.693 96.2555 110C97.0821 110.307 97.9421 110.46 98.8355 110.46C99.6488 110.46 100.309 110.367 100.815 110.18C101.322 109.993 101.695 109.74 101.935 109.42C102.175 109.087 102.295 108.713 102.295 108.3C102.295 107.82 102.135 107.433 101.815 107.14C101.509 106.847 101.102 106.613 100.595 106.44C100.102 106.253 99.5555 106.093 98.9555 105.96C98.3555 105.827 97.7488 105.673 97.1355 105.5C96.5355 105.313 95.9821 105.08 95.4755 104.8C94.9821 104.52 94.5821 104.147 94.2755 103.68C93.9688 103.2 93.8155 102.587 93.8155 101.84C93.8155 101.12 94.0021 100.46 94.3755 99.86C94.7621 99.2467 95.3488 98.76 96.1355 98.4C96.9355 98.0267 97.9488 97.84 99.1755 97.84C99.9888 97.84 100.795 97.9467 101.595 98.16C102.395 98.3733 103.089 98.68 103.675 99.08L103.015 100.68C102.415 100.28 101.782 99.9933 101.115 99.82C100.449 99.6333 99.8021 99.54 99.1755 99.54C98.3888 99.54 97.7421 99.64 97.2355 99.84C96.7288 100.04 96.3555 100.307 96.1155 100.64C95.8888 100.973 95.7755 101.347 95.7755 101.76C95.7755 102.253 95.9288 102.647 96.2355 102.94C96.5555 103.233 96.9621 103.467 97.4555 103.64C97.9621 103.813 98.5155 103.973 99.1155 104.12C99.7155 104.253 100.315 104.407 100.915 104.58C101.529 104.753 102.082 104.98 102.575 105.26C103.082 105.54 103.489 105.913 103.795 106.38C104.102 106.847 104.255 107.447 104.255 108.18C104.255 108.887 104.062 109.547 103.675 110.16C103.289 110.76 102.689 111.247 101.875 111.62C101.075 111.98 100.062 112.16 98.8355 112.16ZM109.777 112V98H111.777V112H109.777ZM124.889 112.16C123.822 112.16 122.829 111.98 121.909 111.62C121.002 111.26 120.215 110.76 119.549 110.12C118.882 109.467 118.362 108.707 117.989 107.84C117.615 106.973 117.429 106.027 117.429 105C117.429 103.973 117.615 103.027 117.989 102.16C118.362 101.293 118.882 100.54 119.549 99.9C120.215 99.2467 121.002 98.74 121.909 98.38C122.815 98.02 123.809 97.84 124.889 97.84C125.955 97.84 126.935 98.02 127.829 98.38C128.735 98.7267 129.522 99.2267 130.189 99.88C130.869 100.52 131.389 101.273 131.749 102.14C132.122 103.007 132.309 103.96 132.309 105C132.309 106.04 132.122 106.993 131.749 107.86C131.389 108.727 130.869 109.487 130.189 110.14C129.522 110.78 128.735 111.28 127.829 111.64C126.935 111.987 125.955 112.16 124.889 112.16ZM124.889 110.38C125.662 110.38 126.375 110.247 127.029 109.98C127.695 109.713 128.269 109.34 128.749 108.86C129.242 108.367 129.622 107.793 129.889 107.14C130.169 106.487 130.309 105.773 130.309 105C130.309 104.227 130.169 103.513 129.889 102.86C129.622 102.207 129.242 101.64 128.749 101.16C128.269 100.667 127.695 100.287 127.029 100.02C126.375 99.7533 125.662 99.62 124.889 99.62C124.102 99.62 123.375 99.7533 122.709 100.02C122.055 100.287 121.482 100.667 120.989 101.16C120.495 101.64 120.109 102.207 119.829 102.86C119.562 103.513 119.429 104.227 119.429 105C119.429 105.773 119.562 106.487 119.829 107.14C120.109 107.793 120.495 108.367 120.989 108.86C121.482 109.34 122.055 109.713 122.709 109.98C123.375 110.247 124.102 110.38 124.889 110.38ZM137.966 112V98H139.606L148.866 109.5H148.006V98H150.006V112H148.366L139.106 100.5H139.966V112H137.966ZM154.676 112L161.016 98H162.996L169.356 112H167.256L161.596 99.12H162.396L156.736 112H154.676ZM157.376 108.5L157.916 106.9H165.796L166.376 108.5H157.376ZM174.045 112V98H176.045V110.26H183.625V112H174.045Z" fill="white"/>
<defs>
<clipPath id="clip0_23_191">
<rect width="123" height="69" fill="white" transform="translate(30.5)"/>
</clipPath>
</defs>
</svg>
