<svg width="19" height="18" viewBox="0 0 19 18" fill="none" xmlns="http://www.w3.org/2000/svg">
<path d="M15.8769 2.61905C15.0476 1.78558 14.0599 1.12475 12.9712 0.675098C11.8826 0.225444 10.7149 -0.00403209 9.53618 5.36125e-05C4.59749 5.36125e-05 0.572362 4.00504 0.572362 8.91903C0.572362 10.494 0.988442 12.024 1.76633 13.374L0.5 18L5.24874 16.758C6.5603 17.469 8.03467 17.847 9.53618 17.847C14.4749 17.847 18.5 13.842 18.5 8.92803C18.5 6.54303 17.5683 4.30204 15.8769 2.61905ZM9.53618 16.335C8.19749 16.335 6.88593 15.975 5.73719 15.3L5.46583 15.138L2.64372 15.876L3.39447 13.14L3.21357 12.861C2.46982 11.6793 2.0749 10.3133 2.07387 8.91903C2.07387 4.83304 5.4206 1.50305 9.52713 1.50305C11.5171 1.50305 13.3894 2.27705 14.7915 3.68104C15.4857 4.36861 16.0358 5.18643 16.41 6.08712C16.7842 6.9878 16.975 7.95343 16.9714 8.92803C16.9894 13.014 13.6427 16.335 9.53618 16.335ZM13.6246 10.791C13.3985 10.683 12.295 10.143 12.096 10.062C11.8879 9.99002 11.7432 9.95402 11.5894 10.17C11.4357 10.395 11.0106 10.899 10.8839 11.043C10.7573 11.196 10.6216 11.214 10.3955 11.097C10.1693 10.989 9.44573 10.746 8.59548 9.99002C7.92613 9.39603 7.48291 8.66703 7.34724 8.44203C7.2206 8.21703 7.32914 8.10003 7.44673 7.98303C7.54623 7.88403 7.67286 7.72203 7.78141 7.59603C7.88995 7.47003 7.93518 7.37103 8.00754 7.22703C8.0799 7.07403 8.04372 6.94803 7.98945 6.84003C7.93517 6.73203 7.48291 5.63404 7.30201 5.18404C7.1211 4.75204 6.93116 4.80604 6.79548 4.79704H6.36131C6.20754 4.79704 5.97236 4.85104 5.76432 5.07604C5.56533 5.30104 4.98643 5.84104 4.98643 6.93903C4.98643 8.03703 5.79146 9.09903 5.9 9.24303C6.00854 9.39603 7.48291 11.646 9.72613 12.609C10.2598 12.843 10.6759 12.978 11.0015 13.077C11.5352 13.248 12.0236 13.221 12.4126 13.167C12.8467 13.104 13.7422 12.627 13.9231 12.105C14.1131 11.583 14.1131 11.142 14.0497 11.043C13.9864 10.944 13.8508 10.899 13.6246 10.791Z" fill="white"/>
</svg>
